<?xml version="1.0" encoding="UTF-8" standalone="no"?>
<svg
   xmlns:dc="http://purl.org/dc/elements/1.1/"
   xmlns:cc="http://creativecommons.org/ns#"
   xmlns:rdf="http://www.w3.org/1999/02/22-rdf-syntax-ns#"
   xmlns:svg="http://www.w3.org/2000/svg"
   xmlns="http://www.w3.org/2000/svg"
   viewBox="0 0 800 533.33331"
   height="533.33331"
   width="800"
   xml:space="preserve"
   id="svg2"
   version="1.1"><metadata
     id="metadata8"><rdf:RDF><cc:Work
         rdf:about=""><dc:format>image/svg+xml</dc:format><dc:type
           rdf:resource="http://purl.org/dc/dcmitype/StillImage" /><dc:title></dc:title></cc:Work></rdf:RDF></metadata><defs
     id="defs6"><clipPath
       id="clipPath20"
       clipPathUnits="userSpaceOnUse"><path
         id="path18"
         d="M 2260,400 H 5410 V 3680 H 2260 Z" /></clipPath></defs><g
     transform="matrix(1.3333333,0,0,-1.3333333,0,533.33333)"
     id="g10"><g
       transform="scale(0.1)"
       id="g12"><g
         id="g14"><g
           clip-path="url(#clipPath20)"
           id="g16"><path
             id="path22"
             style="fill:#d9effb;fill-opacity:1;fill-rule:nonzero;stroke:none"
             d="m 2965.39,1638.12 c -45.08,-26.01 -118.09,-26.01 -163.12,0 -45.08,25.98 -45.08,68.17 0,94.18 45.03,25.98 118.04,25.98 163.12,0 45.04,-26.01 45.04,-68.2 0,-94.18 z m 95.86,149.54 c -98.01,56.56 -256.87,56.56 -354.88,0 -98.01,-56.61 -98.01,-148.32 0,-204.93 98.01,-56.56 256.87,-56.56 354.88,0 98.01,56.61 98.01,148.32 0,204.93" /><path
             id="path24"
             style="fill:#b41086;fill-opacity:1;fill-rule:nonzero;stroke:none"
             d="m 2669.38,1821.17 89.49,-1.4 c 6.64,8.63 16.01,16.71 28.28,23.78 49.22,28.4 126.6,30.59 180.23,6.61 l 53.21,50.04 81.91,-1.29 c -4.06,2.65 -8.2,5.27 -12.62,7.81 -113.79,65.7 -298.36,65.7 -412.15,0 -20.93,-12.07 -38,-25.59 -51.25,-39.88 l 42.9,-45.67" /><path
             id="path26"
             style="fill:#d1078d;fill-opacity:1;fill-rule:nonzero;stroke:none"
             d="m 3102.5,2028.91 v -130 l -81.91,1.29 v 130 l 81.91,-1.29" /><path
             id="path28"
             style="fill:#b41086;fill-opacity:1;fill-rule:nonzero;stroke:none"
             d="m 2967.38,1980.16 v -130 l 53.21,50.04 v 130 l -53.21,-50.04" /><path
             id="path30"
             style="fill:#b41086;fill-opacity:1;fill-rule:nonzero;stroke:none"
             d="m 2758.87,1949.77 v -130 l 117.73,95.93 90.78,-65.54 v 130 l -83.55,40.54 c 0,0 -115.08,-35.23 -121.06,-36.72 -5.97,-1.48 -3.9,-34.21 -3.9,-34.21" /><path
             id="path32"
             style="fill:#b41086;fill-opacity:1;fill-rule:nonzero;stroke:none"
             d="m 2669.38,1951.13 v -129.96 l 89.49,-1.4 v 130 l -89.49,1.36" /><path
             id="path34"
             style="fill:#d1078d;fill-opacity:1;fill-rule:nonzero;stroke:none"
             d="m 2626.48,1996.8 v -129.96 l 42.9,-45.67 v 129.96 l -42.9,45.67" /><path
             id="path36"
             style="fill:#ee1696;fill-opacity:1;fill-rule:nonzero;stroke:none"
             d="m 2669.38,1951.13 89.49,-1.36 c 6.64,8.63 16.01,16.68 28.28,23.75 49.22,28.43 126.6,30.62 180.23,6.64 l 53.21,50.04 81.91,-1.29 c -4.06,2.65 -8.2,5.27 -12.62,7.81 -113.79,65.7 -298.36,65.7 -412.15,0 -20.93,-12.11 -38,-25.59 -51.25,-39.92 l 42.9,-45.67" /><path
             id="path38"
             style="fill:#5f92d3;fill-opacity:1;fill-rule:nonzero;stroke:none"
             d="m 2994.38,1964.18 v -119.49 l 77.46,18.55 c 0,0 -4.54,69.92 -6.22,71.8 -1.64,1.84 -71.24,29.14 -71.24,29.14" /><path
             id="path40"
             style="fill:#263c7a;fill-opacity:1;fill-rule:nonzero;stroke:none"
             d="m 2935.7,1844.69 v -130 l 8.4,-8.95 54.61,31.53 c 0,0 -8.48,99.21 -9.45,101.21 -1.02,1.99 -53.56,6.21 -53.56,6.21" /><path
             id="path42"
             style="fill:#4067b1;fill-opacity:1;fill-rule:nonzero;stroke:none"
             d="m 3041.21,1878.24 -46.83,-44.06 c 39.02,-30.86 34.37,-74.41 -13.87,-102.27 -13.24,-7.61 -28.52,-13.36 -44.81,-17.22 l 48.44,-51.6 -42.89,-40.36 c 54.45,6.29 106.45,21.65 148.63,46.02 97.85,56.48 111.53,143.13 41.14,208.09 l -89.81,1.4" /><path
             id="path44"
             style="fill:#4067b1;fill-opacity:1;fill-rule:nonzero;stroke:none"
             d="m 2941.25,1752.73 v -130 l 106.21,41.06 127.77,121.87 -0.5,138.01 -135.16,-107.11 -98.32,-63.83" /><path
             id="path46"
             style="fill:#d9effb;fill-opacity:1;fill-rule:nonzero;stroke:none"
             d="m 3041.21,2008.2 -46.83,-44.02 c 39.02,-30.9 34.37,-74.41 -13.87,-102.3 -13.24,-7.62 -28.52,-13.36 -44.81,-17.19 l 48.44,-51.6 -42.89,-40.36 c 54.45,6.29 106.45,21.61 148.63,45.98 97.85,56.49 111.53,143.17 41.14,208.13 l -89.81,1.36" /><path
             id="path48"
             style="fill:#4067b1;fill-opacity:1;fill-rule:nonzero;stroke:none"
             d="m 2940.9,1663.79 -42.7,45.47 c -39.61,-2.42 -80.7,5.12 -111.05,22.65 -31.37,18.13 -44.3,42.82 -38.79,66.37 l -101.64,1.6 -39.06,41.6 c -34.18,-58.63 -10.86,-126.01 70.07,-172.73 59.5,-34.34 138.25,-50.7 216.18,-49.14 l 46.99,44.18" /><path
             id="path50"
             style="fill:#4067b1;fill-opacity:1;fill-rule:nonzero;stroke:none"
             d="m 2893.91,1749.57 v -129.96 l -301.49,167.03 v 130.08 l 44.03,-17.81 257.46,-149.34" /><path
             id="path52"
             style="fill:#263c7a;fill-opacity:1;fill-rule:nonzero;stroke:none"
             d="m 2940.9,1793.79 v -130 l -46.99,-44.18 v 129.96 l 46.99,44.22" /><path
             id="path54"
             style="fill:#5f92d3;fill-opacity:1;fill-rule:nonzero;stroke:none"
             d="m 2940.9,1793.79 -42.7,45.43 c -39.61,-2.38 -80.7,5.16 -111.05,22.69 -31.37,18.09 -44.3,42.82 -38.79,66.37 l -101.64,1.56 -39.06,41.64 c -34.18,-58.63 -10.86,-126.01 70.07,-172.77 59.5,-34.33 138.25,-50.66 216.18,-49.14 l 46.99,44.22" /><path
             id="path56"
             style="fill:#d9effb;fill-opacity:1;fill-rule:nonzero;stroke:none"
             d="M 4118.63,789.449 3660.2,1054.18 c -28.17,16.21 -24.61,44.61 7.85,63.36 l 442.69,255.58 c 32.5,18.76 81.64,20.83 109.81,4.58 l 458.43,-264.69 c 28.17,-16.25 24.61,-44.65 -7.85,-63.4 L 4228.44,794.02 c -32.5,-18.75 -81.64,-20.821 -109.81,-4.571" /><path
             id="path58"
             style="fill:#4067b1;fill-opacity:1;fill-rule:nonzero;stroke:none"
             d="m 4831.09,1314.61 v 198.09 l -444.18,0.23 -153.51,88.63 c -35.28,20.35 -96.8,17.82 -137.5,-5.66 l -143.24,-82.74 -444.57,0.28 v -203.71 c -1.02,-13.79 6.68,-27.07 23.59,-36.88 l 574.1,-331.44 c 35.27,-20.359 96.8,-17.781 137.5,5.699 l 554.34,320.041 c 23.47,13.55 34.8,31.09 33.47,47.46" /><path
             id="path60"
             style="fill:#4067b1;fill-opacity:1;fill-rule:nonzero;stroke:none"
             d="m 4169.61,1615.2 c -25.78,-0.59 -52.58,-7.11 -73.71,-19.3 l -143.24,-82.74 -444.57,0.28 v -203.71 c -1.02,-13.79 6.68,-27.07 23.59,-36.88 l 574.1,-331.44 c 16.95,-9.769 39.96,-14.18 63.83,-13.64 v 687.43" /><path
             id="path62"
             style="fill:#5f92d3;fill-opacity:1;fill-rule:nonzero;stroke:none"
             d="m 3558.4,1513.4 -50.31,0.04 v -203.71 c -1.02,-13.79 6.68,-27.07 23.59,-36.88 l 26.72,-15.39 v 255.94" /><path
             id="path64"
             style="fill:#5f92d3;fill-opacity:1;fill-rule:nonzero;stroke:none"
             d="m 4114.65,937.07 c 30.39,-13.011 74.33,-12.269 109.88,1.289 V 1169.65 H 4114.65 V 937.07" /><path
             id="path66"
             style="fill:#d9effb;fill-opacity:1;fill-rule:nonzero;stroke:none"
             d="m 4105.78,1144.41 -574.1,331.45 c -35.23,20.35 -30.82,55.9 9.88,79.37 l 554.34,320.04 c 40.7,23.52 102.22,26.06 137.5,5.71 l 574.1,-331.45 c 35.23,-20.35 30.78,-55.9 -9.88,-79.37 l -554.34,-320.04 c -40.7,-23.52 -102.23,-26.06 -137.5,-5.71" /><path
             id="path68"
             style="fill:#5f92d3;fill-opacity:1;fill-rule:nonzero;stroke:none"
             d="m 4116.13,1204.06 -481.09,277.78 c -29.53,17.03 -25.82,46.79 8.24,66.52 l 464.57,268.2 c 34.1,19.65 85.67,21.8 115.2,4.77 l 481.09,-277.78 c 29.53,-17.07 25.82,-46.83 -8.24,-66.52 l -464.57,-268.2 c -34.1,-19.69 -85.67,-21.84 -115.2,-4.77" /><path
             id="path70"
             style="fill:#d9effb;fill-opacity:1;fill-rule:nonzero;stroke:none"
             d="m 4619.92,1262.3 c 0,-14.76 -10.39,-32.73 -23.16,-40.15 -12.81,-7.38 -23.21,-1.41 -23.21,13.4 0,14.8 10.4,32.77 23.21,40.15 12.77,7.42 23.16,1.41 23.16,-13.4" /><path
             id="path72"
             style="fill:#d9effb;fill-opacity:1;fill-rule:nonzero;stroke:none"
             d="m 4694.53,1305.39 c 0,-14.77 -10.39,-32.77 -23.16,-40.16 -12.82,-7.38 -23.21,-1.4 -23.21,13.4 0,14.77 10.39,32.78 23.21,40.16 12.77,7.38 23.16,1.41 23.16,-13.4" /><path
             id="path74"
             style="fill:#d9effb;fill-opacity:1;fill-rule:nonzero;stroke:none"
             d="m 4769.14,1348.48 c 0,-14.81 -10.39,-32.78 -23.2,-40.16 -12.82,-7.38 -23.17,-1.41 -23.17,13.4 0,14.76 10.35,32.73 23.17,40.16 12.81,7.38 23.2,1.36 23.2,-13.4" /><path
             id="path76"
             style="fill:#4067b1;fill-opacity:1;fill-rule:nonzero;stroke:none"
             d="m 4831.09,1631.17 v 198.09 l -444.18,0.23 -153.51,88.63 c -35.28,20.36 -96.8,17.82 -137.5,-5.7 l -143.24,-82.65 -444.57,0.23 v -203.71 c -1.02,-13.79 6.68,-27.07 23.59,-36.88 l 574.1,-331.44 c 35.27,-20.35 96.8,-17.77 137.5,5.7 l 554.34,320.04 c 23.47,13.56 34.8,31.09 33.47,47.46" /><path
             id="path78"
             style="fill:#4067b1;fill-opacity:1;fill-rule:nonzero;stroke:none"
             d="m 4169.61,1931.8 c -25.78,-0.67 -52.58,-7.15 -73.71,-19.38 l -143.24,-82.65 -444.57,0.23 v -203.71 c -1.02,-13.79 6.68,-27.07 23.59,-36.88 l 574.1,-331.44 c 16.95,-9.77 39.96,-14.22 63.83,-13.63 v 687.46" /><path
             id="path80"
             style="fill:#5f92d3;fill-opacity:1;fill-rule:nonzero;stroke:none"
             d="m 3558.4,1829.96 -50.31,0.04 v -203.71 c -1.02,-13.79 6.68,-27.07 23.59,-36.88 l 26.72,-15.39 v 255.94" /><path
             id="path82"
             style="fill:#5f92d3;fill-opacity:1;fill-rule:nonzero;stroke:none"
             d="m 4114.65,1253.63 c 30.39,-13.01 74.33,-12.26 109.88,1.25 v 231.33 h -109.88 v -232.58" /><path
             id="path84"
             style="fill:#d9effb;fill-opacity:1;fill-rule:nonzero;stroke:none"
             d="m 4105.78,1460.98 -574.1,331.44 c -35.23,20.35 -30.82,55.86 9.88,79.38 l 554.34,320.04 c 40.7,23.51 102.22,26.05 137.5,5.7 l 574.1,-331.45 c 35.23,-20.35 30.78,-55.89 -9.88,-79.37 l -554.34,-320.08 c -40.7,-23.48 -102.23,-26.02 -137.5,-5.66" /><path
             id="path86"
             style="fill:#5f92d3;fill-opacity:1;fill-rule:nonzero;stroke:none"
             d="m 4116.13,1520.62 -481.09,277.78 c -29.53,17.03 -25.82,46.8 8.24,66.48 l 464.57,268.24 c 34.1,19.65 85.67,21.8 115.2,4.77 l 481.09,-277.77 c 29.53,-17.03 25.82,-46.84 -8.24,-66.53 l -464.57,-268.2 c -34.1,-19.69 -85.67,-21.84 -115.2,-4.77" /><path
             id="path88"
             style="fill:#d9effb;fill-opacity:1;fill-rule:nonzero;stroke:none"
             d="m 4619.92,1578.91 c 0,-14.81 -10.39,-32.78 -23.16,-40.2 -12.81,-7.38 -23.21,-1.41 -23.21,13.4 0,14.77 10.4,32.77 23.21,40.16 12.77,7.42 23.16,1.4 23.16,-13.36" /><path
             id="path90"
             style="fill:#d9effb;fill-opacity:1;fill-rule:nonzero;stroke:none"
             d="m 4694.53,1621.95 c 0,-14.76 -10.39,-32.77 -23.16,-40.15 -12.82,-7.39 -23.21,-1.41 -23.21,13.4 0,14.76 10.39,32.77 23.21,40.15 12.77,7.38 23.16,1.41 23.16,-13.4" /><path
             id="path92"
             style="fill:#d9effb;fill-opacity:1;fill-rule:nonzero;stroke:none"
             d="m 4769.14,1665.04 c 0,-14.81 -10.39,-32.77 -23.2,-40.16 -12.82,-7.42 -23.17,-1.4 -23.17,13.36 0,14.81 10.35,32.78 23.17,40.2 12.81,7.38 23.2,1.36 23.2,-13.4" /><path
             id="path94"
             style="fill:#4067b1;fill-opacity:1;fill-rule:nonzero;stroke:none"
             d="m 4831.09,1947.73 v 198.09 l -444.18,0.23 -153.51,88.68 c -35.28,20.31 -96.8,17.77 -137.5,-5.71 l -143.24,-82.73 -444.57,0.27 v -203.75 c -1.02,-13.75 6.68,-27.03 23.59,-36.79 l 574.1,-331.49 c 35.27,-20.35 96.8,-17.77 137.5,5.7 l 554.34,320.04 c 23.47,13.56 34.8,31.14 33.47,47.46" /><path
             id="path96"
             style="fill:#4067b1;fill-opacity:1;fill-rule:nonzero;stroke:none"
             d="m 4169.61,2248.32 c -25.78,-0.62 -52.58,-7.11 -73.71,-19.3 l -143.24,-82.73 -444.57,0.27 v -203.75 c -1.02,-13.75 6.68,-27.03 23.59,-36.79 l 574.1,-331.49 c 16.95,-9.76 39.96,-14.22 63.83,-13.63 v 687.42" /><path
             id="path98"
             style="fill:#5f92d3;fill-opacity:1;fill-rule:nonzero;stroke:none"
             d="m 3558.4,2146.52 -50.31,0.04 v -203.75 c -1.02,-13.75 6.68,-27.03 23.59,-36.79 l 26.72,-15.43 v 255.93" /><path
             id="path100"
             style="fill:#5f92d3;fill-opacity:1;fill-rule:nonzero;stroke:none"
             d="m 4114.65,1570.2 c 30.39,-13.01 74.33,-12.31 109.88,1.25 v 231.32 H 4114.65 V 1570.2" /><path
             id="path102"
             style="fill:#d9effb;fill-opacity:1;fill-rule:nonzero;stroke:none"
             d="m 4105.78,1777.54 -574.1,331.44 c -35.23,20.36 -30.82,55.86 9.88,79.38 l 554.34,320.04 c 40.7,23.51 102.22,26.05 137.5,5.7 l 574.1,-331.44 c 35.23,-20.36 30.78,-55.9 -9.88,-79.38 L 4243.28,1783.2 c -40.7,-23.47 -102.23,-26.01 -137.5,-5.66" /><path
             id="path104"
             style="fill:#5f92d3;fill-opacity:1;fill-rule:nonzero;stroke:none"
             d="m 4480.43,2001.64 -399.38,246.68 -124.29,-237.7 34.49,-127.96 134.57,-87.04 354.61,206.02" /><path
             id="path106"
             style="fill:#ffffff;fill-opacity:1;fill-rule:nonzero;stroke:none"
             d="m 4797.62,2142.27 -554.34,-320.04 c -40.7,-23.52 -102.23,-26.06 -137.5,-5.75 l -574.1,331.49 c -7.85,4.53 -13.63,9.84 -17.58,15.58 -12.11,-19.45 -6.6,-40.58 17.58,-54.57 l 574.1,-331.44 c 35.27,-20.35 96.8,-17.81 137.5,5.66 l 554.34,320.08 c 31.6,18.24 41.21,43.75 27.46,63.75 -5.55,-8.87 -14.73,-17.42 -27.46,-24.76" /><path
             id="path108"
             style="fill:#d9effb;fill-opacity:1;fill-rule:nonzero;stroke:none"
             d="m 4619.92,1895.47 c 0,-14.81 -10.39,-32.77 -23.16,-40.2 -12.81,-7.38 -23.21,-1.36 -23.21,13.4 0,14.81 10.4,32.78 23.21,40.16 12.77,7.38 23.16,1.4 23.16,-13.36" /><path
             id="path110"
             style="fill:#d9effb;fill-opacity:1;fill-rule:nonzero;stroke:none"
             d="m 4694.53,1938.52 c 0,-14.77 -10.39,-32.78 -23.16,-40.16 -12.82,-7.38 -23.21,-1.41 -23.21,13.4 0,14.76 10.39,32.77 23.21,40.15 12.77,7.39 23.16,1.41 23.16,-13.39" /><path
             id="path112"
             style="fill:#d9effb;fill-opacity:1;fill-rule:nonzero;stroke:none"
             d="m 4769.14,1981.6 c 0,-14.8 -10.39,-32.77 -23.2,-40.15 -12.82,-7.43 -23.17,-1.41 -23.17,13.35 0,14.81 10.35,32.78 23.17,40.2 12.81,7.38 23.2,1.41 23.2,-13.4" /><path
             id="path114"
             style="fill:#d9effb;fill-opacity:1;fill-rule:nonzero;stroke:none"
             d="m 4088.75,1710.43 c 0,-10.31 -7.27,-14.49 -16.21,-9.38 -8.95,5.2 -16.17,17.74 -16.17,28.05 0,10.31 7.22,14.49 16.17,9.38 8.94,-5.2 16.21,-17.74 16.21,-28.05" /><path
             id="path116"
             style="fill:#5f92d3;fill-opacity:1;fill-rule:nonzero;stroke:none"
             d="m 4038.52,1739.22 c 0,-10.31 -7.23,-14.49 -16.18,-9.34 -8.94,5.16 -16.17,17.7 -16.17,28.01 0,10.35 7.23,14.53 16.17,9.38 8.95,-5.16 16.18,-17.74 16.18,-28.05" /><path
             id="path118"
             style="fill:#d9effb;fill-opacity:1;fill-rule:nonzero;stroke:none"
             d="m 4088.75,1649.8 c 0,-10.31 -7.27,-14.49 -16.21,-9.33 -8.95,5.15 -16.17,17.73 -16.17,28.05 0,10.31 7.22,14.49 16.17,9.33 8.94,-5.15 16.21,-17.69 16.21,-28.05" /><path
             id="path120"
             style="fill:#d9effb;fill-opacity:1;fill-rule:nonzero;stroke:none"
             d="m 4038.52,1678.63 c 0,-10.35 -7.23,-14.53 -16.18,-9.33 -8.94,5.15 -16.17,17.69 -16.17,28 0,10.36 7.23,14.54 16.17,9.34 8.95,-5.16 16.18,-17.69 16.18,-28.01" /><path
             id="path122"
             style="fill:#ffffff;fill-opacity:1;fill-rule:nonzero;stroke:none"
             d="m 4088.75,1396.6 c 0,-10.31 -7.27,-14.49 -16.21,-9.33 -8.95,5.11 -16.17,17.69 -16.17,28 0,10.32 7.22,14.53 16.17,9.34 8.94,-5.16 16.21,-17.7 16.21,-28.01" /><path
             id="path124"
             style="fill:#5f92d3;fill-opacity:1;fill-rule:nonzero;stroke:none"
             d="m 4038.52,1425.39 c 0,-10.31 -7.23,-14.49 -16.18,-9.34 -8.94,5.16 -16.17,17.7 -16.17,28.01 0,10.32 7.23,14.53 16.17,9.38 8.95,-5.2 16.18,-17.74 16.18,-28.05" /><path
             id="path126"
             style="fill:#d9effb;fill-opacity:1;fill-rule:nonzero;stroke:none"
             d="m 4088.75,1336.02 c 0,-10.36 -7.27,-14.54 -16.21,-9.38 -8.95,5.2 -16.17,17.74 -16.17,28.05 0,10.31 7.22,14.49 16.17,9.33 8.94,-5.15 16.21,-17.69 16.21,-28" /><path
             id="path128"
             style="fill:#d9effb;fill-opacity:1;fill-rule:nonzero;stroke:none"
             d="m 4038.52,1364.8 c 0,-10.35 -7.23,-14.53 -16.18,-9.33 -8.94,5.15 -16.17,17.69 -16.17,28.01 0,10.35 7.23,14.53 16.17,9.33 8.95,-5.15 16.18,-17.69 16.18,-28.01" /><path
             id="path130"
             style="fill:#ffffff;fill-opacity:1;fill-rule:nonzero;stroke:none"
             d="m 4088.75,1079.41 c 0,-10.31 -7.27,-14.49 -16.21,-9.33 -8.95,5.15 -16.17,17.69 -16.17,28.04 0,10.32 7.22,14.5 16.17,9.34 8.94,-5.16 16.21,-17.69 16.21,-28.05" /><path
             id="path132"
             style="fill:#5f92d3;fill-opacity:1;fill-rule:nonzero;stroke:none"
             d="m 4038.52,1108.2 c 0,-10.31 -7.23,-14.49 -16.18,-9.33 -8.94,5.15 -16.17,17.73 -16.17,28.04 0,10.32 7.23,14.5 16.17,9.34 8.95,-5.16 16.18,-17.7 16.18,-28.05" /><path
             id="path134"
             style="fill:#ffffff;fill-opacity:1;fill-rule:nonzero;stroke:none"
             d="m 4088.75,1018.83 c 0,-10.31 -7.27,-14.49 -16.21,-9.34 -8.95,5.16 -16.17,17.7 -16.17,28.05 0,10.31 7.22,14.49 16.17,9.34 8.94,-5.16 16.21,-17.74 16.21,-28.05" /><path
             id="path136"
             style="fill:#d9effb;fill-opacity:1;fill-rule:nonzero;stroke:none"
             d="m 4038.52,1047.62 c 0,-10.32 -7.23,-14.5 -16.18,-9.34 -8.94,5.16 -16.17,17.74 -16.17,28.05 0,10.31 7.23,14.49 16.17,9.33 8.95,-5.15 16.18,-17.69 16.18,-28.04" /><path
             id="path138"
             style="fill:#263c7a;fill-opacity:1;fill-rule:nonzero;stroke:none"
             d="m 4466.99,1993.83 -563.01,325.04 c -6.56,3.79 -5.74,10.39 1.88,14.76 7.54,4.38 19.02,4.85 25.59,1.1 l 562.96,-325.08 c 6.61,-3.79 5.79,-10.39 -1.79,-14.77 -7.58,-4.37 -19.07,-4.84 -25.63,-1.05" /><path
             id="path140"
             style="fill:#d9effb;fill-opacity:1;fill-rule:nonzero;stroke:none"
             d="m 2263.98,1217.11 352,204.92 c 69.72,40.27 135.5,46.64 185.19,18.01 49.69,-28.71 77.03,-88.87 77.03,-169.38 v -25.78 c -2.5,-1.68 -5.11,-3.32 -7.77,-4.96 v 30.74 c 0,77.62 -25.98,135.39 -73.13,162.62 -47.18,27.23 -110.19,20.86 -177.46,-17.97 l -351.99,-204.96 c -1.83,-1.05 -4.22,-0.43 -5.27,1.45 -1.1,1.83 -0.47,4.22 1.4,5.31" /><path
             id="path142"
             style="fill:#d9effb;fill-opacity:1;fill-rule:nonzero;stroke:none"
             d="m 3361.72,1461.25 v 793.24 c 0,158.79 111.87,352.58 249.41,431.96 67.35,38.9 130.86,45.07 178.87,17.34 47.97,-27.7 74.41,-85.78 74.41,-163.56 v -55.31 c -2.57,-2.58 -5.19,-5.15 -7.77,-7.73 v 63.04 c 0,74.89 -25.04,130.59 -70.55,156.84 -45.47,26.25 -106.25,20.12 -171.09,-17.3 -135.35,-78.17 -245.51,-268.95 -245.51,-425.28 v -793.24 c 0,-131.6 -77.46,-287.38 -182.46,-381.13 0,3.47 0,6.95 0,10.43 100.86,92.69 174.69,243.2 174.69,370.7" /><path
             id="path144"
             style="fill:#4067b1;fill-opacity:1;fill-rule:nonzero;stroke:none"
             d="m 3864.41,2460.66 c 12.74,12.11 72.15,64.54 158.91,77.78 98.2,15.04 138.83,-99.85 138.83,-99.85 0,0 11.33,-59.64 10.94,-94.96 -0.39,-35.31 -2.93,-163.55 -2.93,-163.55 l -311.37,179.37 v 0.04 c -1.25,0.63 -2.15,1.92 -2.15,3.4 v 91.06 c 2.58,2.57 5.2,4.14 7.77,6.71" /><path
             id="path146"
             style="fill:#d9effb;fill-opacity:1;fill-rule:nonzero;stroke:none"
             d="m 4085.12,2533.67 -295.12,170.16 1.13,-4.26 c -45.47,29.38 -114.22,32.54 -206.17,-34.88 -182.66,-133.95 -204.61,-320.43 -213.91,-355.35 -9.33,-34.96 -5.46,-256.33 -5.46,-256.33 0,0 -0.63,-533.95 -1.25,-596.06 -0.59,-62.11 -18.68,-131.75 -53.56,-206.99 -34.88,-75.23 -124.53,-166.52 -124.53,-166.52 V 974.77 c 14.34,-117.5 64.26,-144.93 138.52,-151.61 59.96,-5.43 123.82,37.891 174.88,85.039 -1.92,-1.949 -3.13,-3.199 -3.13,-3.199 V 796.332 c 14.34,-117.5 64.26,-144.883 138.52,-151.602 74.3,-6.679 154.61,61.321 209.02,118.899 54.46,57.582 100.35,145.551 125.82,224.891 25.51,79.33 17.07,181.83 17.07,181.83 0,0 0.63,583.67 1.21,698.75 0.63,115.04 4.26,94.96 42.04,210.67 37.73,115.66 137.81,196.64 137.81,196.64 l 240.08,71.48 -322.97,185.78" /><path
             id="path148"
             style="fill:#4067b1;fill-opacity:1;fill-rule:nonzero;stroke:none"
             d="m 3571.33,654.488 c -4.03,5.512 -56.64,40.742 -70,102.852 -7.46,34.57 -6.72,87.07 -6.72,87.07 0,0 0.19,29.219 0.94,55.789 l 1.75,1.481 c 0,3.48 0,6.949 0,10.429 l -1.44,-1.289 c 0.19,6.02 0.43,11.641 0.66,16.41 1.53,27.571 -18.86,86.44 -18.86,86.44 0,0 -28.91,78.87 -115.08,81.92 -76.49,2.69 -156.99,-52.35 -174.1,-64.73 v 35.59 c -1.18,-0.79 -2.39,-1.53 -3.56,-2.27 0.12,4.77 0.2,9.65 0.31,14.41 l 1.8,1.53 c 0,3.47 0,6.95 0,10.43 l -1.44,-1.29 c 0.19,6.01 0.43,11.64 0.66,16.4 1.52,27.58 -18.87,86.45 -18.87,86.45 0,0 -28.9,78.87 -115.08,81.87 -76.48,2.74 -156.99,-52.3 -174.1,-64.68 v 35.58 c -2.5,-1.68 -5.11,-3.32 -7.77,-4.96 v -62.3 c 0,-75.55 25.16,-132.31 70.86,-160.47 l 0.16,-0.24 1.6,-0.89 1.29,-0.82 0.82,-0.4 315.89,-181.87 -0.39,0.429 310.67,-178.871" /><path
             id="path150"
             style="fill:#d9effb;fill-opacity:1;fill-rule:nonzero;stroke:none"
             d="m 3111.45,1261.56 c 0,0 -2.39,1.21 -6.57,2.93 -1.29,0.63 -2.5,1.33 -3.79,1.92 L 2801.17,1440 c 0,0 -55.12,28.98 -121.76,4.57 -66.64,-24.37 -415.89,-233.91 -415.89,-233.91 l 311.99,-179.72 0.08,0.04 0.82,-0.24 309.37,-178.24 c 0,0 175.04,108.441 296.13,178.4 l 7.78,4.45 c 49.53,28.48 88.83,49.77 101.17,53.01 74.65,19.76 126.6,-4.34 140.12,-11.76 l -319.53,184.96" /><path
             id="path152"
             style="fill:#d9effb;fill-opacity:1;fill-rule:nonzero;stroke:none"
             d="m 3430.98,1076.6 3.63,-2.07 c 0,0 -1.33,0.82 -3.63,2.07" /><path
             id="path154"
             style="fill:#4067b1;fill-opacity:1;fill-rule:nonzero;stroke:none"
             d="m 4174.69,2282.23 c 12.73,12.11 72.19,64.53 158.9,77.77 98.21,15.04 138.79,-99.84 138.79,-99.84 0,0 11.37,-59.65 10.98,-94.96 -0.39,-35.32 -2.93,-163.56 -2.93,-163.56 l -311.37,179.38 v 0.03 c -1.29,0.63 -2.15,1.92 -2.15,3.4 v 91.06 c 2.58,2.58 5.2,4.14 7.78,6.72" /><path
             id="path156"
             style="fill:#4067b1;fill-opacity:1;fill-rule:nonzero;stroke:none"
             d="m 3631.99,640.352 c 34.38,0 72.35,11.488 111.68,34.218 136.53,78.789 247.58,271.168 247.58,428.83 v 793.24 c 0,156.33 110.16,347.07 245.55,425.24 64.84,37.42 125.58,43.59 171.05,17.34 45.51,-26.25 70.55,-81.95 70.55,-156.84 v -177.34 c 0,-2.15 1.76,-3.91 3.9,-3.91 2.11,0 3.87,1.76 3.87,3.91 v 177.34 c 0,77.78 -26.4,135.86 -74.41,163.56 -48.01,27.69 -111.53,21.52 -178.87,-17.35 -137.54,-79.37 -249.37,-273.16 -249.37,-431.95 V 1103.4 c 0,-155.201 -109.34,-344.529 -243.72,-422.15 -64.37,-37.148 -124.68,-43.238 -169.84,-17.191 -45.16,26.062 -70,81.332 -70,155.671 v 93.079 c 0,80.511 -27.34,140.671 -77.03,169.341 -49.69,28.67 -115.43,22.3 -185.2,-17.97 L 2885.74,859.219 c -1.83,-1.059 -2.5,-3.438 -1.4,-5.309 1.05,-1.84 3.47,-2.461 5.31,-1.41 l 351.99,204.96 c 67.23,38.83 130.24,45.2 177.38,17.97 47.19,-27.27 73.17,-85 73.17,-162.621 V 819.73 c 0,-77.191 26.25,-134.89 73.9,-162.39 19.61,-11.32 41.88,-16.988 65.9,-16.988" /><path
             id="path158"
             style="fill:#5f92d3;fill-opacity:1;fill-rule:nonzero;stroke:none"
             d="m 3693.98,2458.01 -37.14,21.44 c -2.31,1.33 -2.35,4.3 -0.08,6.68 l 30.51,32.07 c 2.22,2.39 5.85,3.21 8.16,1.92 l 37.19,-21.49 c 2.26,-1.29 2.3,-4.29 0.08,-6.64 l -30.51,-32.11 c -2.27,-2.34 -5.9,-3.2 -8.21,-1.87" /><path
             id="path160"
             style="fill:#4067b1;fill-opacity:1;fill-rule:nonzero;stroke:none"
             d="m 3773.91,2411.84 -37.15,21.44 c -2.31,1.33 -2.35,4.3 -0.08,6.64 l 30.51,32.11 c 2.22,2.35 5.9,3.2 8.16,1.88 l 37.19,-21.45 c 2.26,-1.33 2.3,-4.3 0.08,-6.68 l -30.51,-32.07 c -2.27,-2.38 -5.9,-3.2 -8.2,-1.87" /><path
             id="path162"
             style="fill:#ffffff;fill-opacity:1;fill-rule:nonzero;stroke:none"
             d="m 3853.87,2365.62 -37.19,21.45 c -2.3,1.33 -2.3,4.3 -0.08,6.68 l 30.51,32.07 c 2.23,2.38 5.9,3.2 8.16,1.88 l 37.19,-21.45 c 2.27,-1.33 2.31,-4.3 0.08,-6.64 l -30.51,-32.11 c -2.23,-2.34 -5.9,-3.2 -8.16,-1.88" /><path
             id="path164"
             style="fill:#5f92d3;fill-opacity:1;fill-rule:nonzero;stroke:none"
             d="m 3933.79,2319.41 -37.19,21.49 c -2.26,1.33 -2.3,4.3 -0.08,6.64 l 30.51,32.11 c 2.23,2.34 5.9,3.2 8.2,1.87 l 37.15,-21.44 c 2.31,-1.33 2.31,-4.3 0.08,-6.68 l -30.51,-32.07 c -2.22,-2.38 -5.9,-3.21 -8.16,-1.92" /><path
             id="path166"
             style="fill:#5f92d3;fill-opacity:1;fill-rule:nonzero;stroke:none"
             d="m 3675.08,1716.21 -52.03,30.04 c -4.85,2.77 -8.83,10.31 -8.95,16.8 -0.12,6.48 3.71,9.49 8.56,6.68 l 52.03,-30.04 c 4.84,-2.81 8.83,-10.31 8.94,-16.8 0.08,-6.48 -3.75,-9.45 -8.55,-6.68" /><path
             id="path168"
             style="fill:#5f92d3;fill-opacity:1;fill-rule:nonzero;stroke:none"
             d="m 3799.02,1644.65 -76.72,44.3 c -4.84,2.77 -8.82,10.31 -8.94,16.79 -0.12,6.49 3.75,9.46 8.55,6.68 l 76.72,-44.3 c 4.85,-2.81 8.83,-10.31 8.95,-16.79 0.12,-6.49 -3.71,-9.45 -8.56,-6.68" /><path
             id="path170"
             style="fill:#5f92d3;fill-opacity:1;fill-rule:nonzero;stroke:none"
             d="m 3649.3,1438.71 -52.03,30.04 c -4.85,2.77 -8.83,10.31 -8.95,16.8 -0.12,6.48 3.71,9.49 8.56,6.68 l 52.03,-30.04 c 4.84,-2.78 8.82,-10.31 8.94,-16.8 0.12,-6.48 -3.75,-9.45 -8.55,-6.68" /><path
             id="path172"
             style="fill:#5f92d3;fill-opacity:1;fill-rule:nonzero;stroke:none"
             d="m 3759.8,1374.92 -76.75,44.3 c -4.85,2.77 -8.83,10.31 -8.95,16.8 -0.08,6.44 3.75,9.45 8.6,6.68 l 76.71,-44.3 c 4.81,-2.78 8.83,-10.31 8.95,-16.8 0.08,-6.48 -3.75,-9.45 -8.56,-6.68" /><path
             id="path174"
             style="fill:#5f92d3;fill-opacity:1;fill-rule:nonzero;stroke:none"
             d="m 3532.38,1749.84 -32.5,18.79 c -4.84,2.78 -8.83,10.32 -8.94,16.76 -0.08,6.49 3.75,9.49 8.55,6.72 l 32.5,-18.75 c 4.85,-2.81 8.83,-10.31 8.95,-16.8 0.11,-6.48 -3.71,-9.49 -8.56,-6.72" /><path
             id="path176"
             style="fill:#5f92d3;fill-opacity:1;fill-rule:nonzero;stroke:none"
             d="m 3643.4,1637.03 -99.34,57.35 c -4.8,2.81 -8.83,10.31 -8.9,16.79 -0.12,6.49 3.71,9.45 8.51,6.68 l 99.34,-57.34 c 4.84,-2.78 8.83,-10.31 8.94,-16.8 0.08,-6.44 -3.75,-9.45 -8.55,-6.68" /><path
             id="path178"
             style="fill:#5f92d3;fill-opacity:1;fill-rule:nonzero;stroke:none"
             d="m 3578.16,1577.23 -32.5,18.79 c -4.8,2.77 -8.82,10.27 -8.9,16.75 -0.12,6.49 3.71,9.5 8.51,6.68 l 32.5,-18.75 c 4.85,-2.77 8.83,-10.31 8.95,-16.75 0.12,-6.53 -3.71,-9.5 -8.56,-6.72" /><path
             id="path180"
             style="fill:#5f92d3;fill-opacity:1;fill-rule:nonzero;stroke:none"
             d="m 3798.16,1255.31 -86.83,50.12 c -4.85,2.77 -8.83,10.31 -8.95,16.8 -0.08,6.48 3.71,9.49 8.56,6.68 l 86.83,-50.12 c 4.85,-2.77 8.83,-10.31 8.95,-16.8 0.08,-6.48 -3.75,-9.45 -8.56,-6.68" /><path
             id="path182"
             style="fill:#5f92d3;fill-opacity:1;fill-rule:nonzero;stroke:none"
             d="m 3568.12,1485.59 -20.85,12.03 c -4.85,2.77 -8.83,10.31 -8.95,16.79 -0.12,6.49 3.71,9.5 8.56,6.68 l 20.85,-12.03 c 4.85,-2.81 8.83,-10.31 8.95,-16.79 0.12,-6.49 -3.71,-9.5 -8.56,-6.68" /><path
             id="path184"
             style="fill:#5f92d3;fill-opacity:1;fill-rule:nonzero;stroke:none"
             d="m 3574.77,1384.3 -25.9,14.96 c -4.85,2.77 -8.83,10.27 -8.95,16.76 -0.12,6.48 3.71,9.49 8.56,6.68 l 25.9,-14.97 c 4.84,-2.77 8.82,-10.27 8.94,-16.75 0.12,-6.49 -3.71,-9.5 -8.55,-6.68" /><path
             id="path186"
             style="fill:#5f92d3;fill-opacity:1;fill-rule:nonzero;stroke:none"
             d="m 3675.59,1326.05 -68.32,39.46 c -4.85,2.77 -8.83,10.31 -8.95,16.79 -0.12,6.49 3.71,9.5 8.56,6.68 l 68.32,-39.45 c 4.84,-2.77 8.82,-10.27 8.94,-16.76 0.08,-6.48 -3.75,-9.49 -8.55,-6.72" /><path
             id="path188"
             style="fill:#5f92d3;fill-opacity:1;fill-rule:nonzero;stroke:none"
             d="m 3598.79,1321.68 -49.14,28.36 c -4.85,2.77 -8.83,10.31 -8.95,16.8 -0.08,6.48 3.75,9.49 8.56,6.68 l 49.14,-28.36 c 4.8,-2.78 8.83,-10.32 8.9,-16.76 0.12,-6.52 -3.71,-9.49 -8.51,-6.72" /><path
             id="path190"
             style="fill:#5f92d3;fill-opacity:1;fill-rule:nonzero;stroke:none"
             d="m 3699.1,1507.42 -86.83,50.12 c -4.85,2.77 -8.83,10.31 -8.91,16.8 -0.12,6.48 3.71,9.49 8.52,6.68 l 86.83,-50.12 c 4.84,-2.78 8.83,-10.31 8.95,-16.8 0.07,-6.48 -3.71,-9.45 -8.56,-6.68" /><path
             id="path192"
             style="fill:#5f92d3;fill-opacity:1;fill-rule:nonzero;stroke:none"
             d="m 3696.17,1557.81 -151.29,87.39 c -4.84,2.77 -8.83,10.31 -8.94,16.75 -0.12,6.53 3.71,9.5 8.55,6.72 l 151.33,-87.38 c 4.8,-2.77 8.83,-10.27 8.95,-16.8 0.07,-6.44 -3.75,-9.45 -8.6,-6.68" /><path
             id="path194"
             style="fill:#5f92d3;fill-opacity:1;fill-rule:nonzero;stroke:none"
             d="m 3633.28,1496.68 -86.8,50.12 c -4.84,2.81 -8.82,10.31 -8.94,16.79 -0.12,6.49 3.71,9.5 8.55,6.68 l 86.8,-50.11 c 4.84,-2.78 8.87,-10.32 8.95,-16.8 0.11,-6.48 -3.72,-9.45 -8.56,-6.68" /><path
             id="path196"
             style="fill:#5f92d3;fill-opacity:1;fill-rule:nonzero;stroke:none"
             d="m 3764.96,1469.38 -31.56,18.24 c -4.85,2.77 -8.83,10.27 -8.95,16.76 -0.07,6.52 3.75,9.49 8.56,6.71 l 31.56,-18.24 c 4.81,-2.77 8.83,-10.27 8.95,-16.76 0.07,-6.48 -3.75,-9.49 -8.56,-6.71" /><path
             id="path198"
             style="fill:#5f92d3;fill-opacity:1;fill-rule:nonzero;stroke:none"
             d="m 3652.42,1388.16 -104.37,60.28 c -4.81,2.77 -8.83,10.27 -8.91,16.76 -0.12,6.52 3.71,9.49 8.56,6.71 l 104.33,-60.27 c 4.85,-2.77 8.83,-10.31 8.95,-16.8 0.11,-6.44 -3.71,-9.45 -8.56,-6.68" /><path
             id="path200"
             style="fill:#5f92d3;fill-opacity:1;fill-rule:nonzero;stroke:none"
             d="m 3575.82,1773.52 -76.76,44.29 c -4.8,2.81 -8.83,10.31 -8.9,16.8 -0.12,6.48 3.71,9.45 8.55,6.68 l 76.72,-44.3 c 4.8,-2.77 8.83,-10.31 8.95,-16.79 0.07,-6.49 -3.76,-9.46 -8.56,-6.68" /><path
             id="path202"
             style="fill:#5f92d3;fill-opacity:1;fill-rule:nonzero;stroke:none"
             d="m 3595.94,1274.61 -88.91,51.29 c -4.8,2.81 -8.83,10.31 -8.91,16.8 -0.11,6.48 3.72,9.49 8.56,6.68 l 88.87,-51.29 c 4.8,-2.82 8.83,-10.32 8.9,-16.8 0.12,-6.49 -3.71,-9.45 -8.51,-6.68" /><path
             id="path204"
             style="fill:#5f92d3;fill-opacity:1;fill-rule:nonzero;stroke:none"
             d="m 2660.31,1225.51 -37.19,21.48 c -2.26,1.29 -1.99,3.6 0.63,5.12 l 35.9,20.74 c 2.65,1.53 6.64,1.68 8.9,0.35 l 37.19,-21.44 c 2.27,-1.33 1.99,-3.64 -0.66,-5.16 l -35.86,-20.7 c -2.66,-1.52 -6.64,-1.68 -8.91,-0.39" /><path
             id="path206"
             style="fill:#4067b1;fill-opacity:1;fill-rule:nonzero;stroke:none"
             d="m 2740.23,1179.34 -37.18,21.44 c -2.27,1.33 -2,3.63 0.62,5.16 l 35.9,20.7 c 2.66,1.52 6.64,1.72 8.91,0.39 l 37.18,-21.44 c 2.27,-1.33 2,-3.64 -0.66,-5.16 l -35.9,-20.7 c -2.62,-1.57 -6.6,-1.72 -8.87,-0.39" /><path
             id="path208"
             style="fill:#ffffff;fill-opacity:1;fill-rule:nonzero;stroke:none"
             d="m 2820.16,1133.16 -37.19,21.45 c -2.27,1.33 -1.99,3.63 0.66,5.16 l 35.86,20.7 c 2.66,1.52 6.64,1.68 8.91,0.39 l 37.19,-21.48 c 2.26,-1.29 1.99,-3.64 -0.67,-5.12 l -35.86,-20.74 c -2.65,-1.53 -6.64,-1.68 -8.9,-0.36" /><path
             id="path210"
             style="fill:#5f92d3;fill-opacity:1;fill-rule:nonzero;stroke:none"
             d="m 2900.08,1086.95 -37.19,21.49 c -2.27,1.33 -1.99,3.59 0.66,5.11 l 35.86,20.75 c 2.66,1.52 6.64,1.68 8.91,0.35 l 37.19,-21.45 c 2.26,-1.32 1.99,-3.63 -0.67,-5.15 l -35.86,-20.71 c -2.65,-1.52 -6.64,-1.68 -8.9,-0.39" /><path
             id="path212"
             style="fill:#263c7a;fill-opacity:1;fill-rule:nonzero;stroke:none"
             d="m 3757.81,1892.77 c 0,0 -42.93,21.64 -69.26,-10.54 -26.36,-32.27 -64.06,-108.32 -65.23,-159.77 -1.17,-51.41 40.7,-47.93 65.59,-35.74 24.88,12.15 97.54,117.58 101.95,138.24 4.37,20.66 -5.2,48.59 -12.19,54.02 -6.99,5.47 -20.86,13.79 -20.86,13.79" /><path
             id="path214"
             style="fill:#d9effb;fill-opacity:1;fill-rule:nonzero;stroke:none"
             d="m 3767.19,1903.12 1.99,-44.45 c 0.43,-9.45 -4.34,-18.47 -12.58,-23.12 -7.5,-4.26 -18.4,-7.54 -33.08,-5.16 -32.35,5.2 -35.24,14.41 -37.54,58.91 -2.35,44.41 81.21,13.82 81.21,13.82" /><path
             id="path216"
             style="fill:#263c7a;fill-opacity:1;fill-rule:nonzero;stroke:none"
             d="m 3600.7,1978.28 c 0,0 -42.93,21.64 -69.29,-10.58 -26.33,-32.23 -64.03,-108.32 -65.2,-159.73 -1.17,-51.41 40.67,-47.93 65.59,-35.74 24.84,12.15 97.54,117.57 101.91,138.24 4.41,20.62 -5.16,48.55 -12.15,54.02 -6.99,5.47 -20.86,13.79 -20.86,13.79" /><path
             id="path218"
             style="fill:#d9effb;fill-opacity:1;fill-rule:nonzero;stroke:none"
             d="m 3610.08,1988.63 1.95,-44.45 c 0.43,-9.45 -4.3,-18.48 -12.54,-23.13 -7.5,-4.25 -18.4,-7.53 -33.12,-5.15 -32.35,5.19 -35.2,14.41 -37.5,58.87 -2.35,44.49 81.21,13.86 81.21,13.86" /><path
             id="path220"
             style="fill:#263c7a;fill-opacity:1;fill-rule:nonzero;stroke:none"
             d="m 3993.09,2805.08 c -12.74,206.68 -223.87,-30.43 -223.87,-30.43 l -144.53,-141.64 -130.12,-142.97 c -25.43,-27.93 -37.27,-65.63 -32.34,-103.05 l 52.65,-400.86 c 2.58,-19.76 19.53,-34.37 39.5,-34.22 5.66,0.04 12.1,0.55 19.53,1.68 46.95,7.35 43.47,52 43.47,52 l -9.65,374.92 273.32,164.72 c 0,0 124.73,53.13 112.04,259.85" /><path
             id="path222"
             style="fill:#263c7a;fill-opacity:1;fill-rule:nonzero;stroke:none"
             d="m 4150.2,2726.29 c -12.74,206.72 -223.87,-30.39 -223.87,-30.39 L 3781.8,2554.26 3651.68,2411.29 c -25.43,-27.93 -37.27,-65.63 -32.3,-103.05 l 52.61,-400.86 c 2.62,-19.8 19.53,-34.37 39.49,-34.26 5.67,0.08 12.11,0.59 19.54,1.72 46.95,7.35 43.47,52 43.47,52 l -9.61,374.88 273.28,164.76 c 0,0 124.73,53.13 112.04,259.81" /><path
             id="path224"
             style="fill:#5f92d3;fill-opacity:1;fill-rule:nonzero;stroke:none"
             d="m 4025.27,3389.8 c 160.08,-66.32 156.88,-160.97 156.88,-160.97 0,0 -31.37,-346.92 -20.67,-578.6 4.5,-96.87 -514.6,-104.25 -437.18,154.15 91.29,304.68 57.07,551.32 99.8,588.51 42.74,37.19 159.77,14.1 201.17,-3.09" /><path
             id="path226"
             style="fill:#fab6a9;fill-opacity:1;fill-rule:nonzero;stroke:none"
             d="m 4076.76,3305.94 c -8.36,-32.5 -50.94,-49.65 -95.12,-38.28 -44.14,11.36 -73.16,46.95 -64.76,79.45 8.35,32.5 50.93,49.65 95.07,38.24 44.18,-11.37 73.21,-46.91 64.81,-79.41" /><path
             id="path228"
             style="fill:#ffffff;fill-opacity:1;fill-rule:nonzero;stroke:none"
             d="m 3984.65,3381.25 c -10.98,0 -21.45,-1.87 -30.78,-5.66 -15.67,-6.29 -26.17,-17.07 -29.57,-30.39 -3.44,-13.32 0.54,-27.82 11.21,-40.9 11.21,-13.75 28.28,-24.1 48.04,-29.22 19.77,-5.08 39.73,-4.3 56.22,2.34 15.66,6.29 26.17,17.11 29.61,30.39 3.39,13.32 -0.59,27.85 -11.26,40.9 -11.21,13.75 -28.28,24.14 -48.04,29.26 -8.56,2.19 -17.15,3.28 -25.43,3.28 z m 24.33,-124.77 c -9.6,0 -19.45,1.25 -29.21,3.75 -22.93,5.94 -42.89,18.13 -56.14,34.42 -13.83,16.91 -18.86,36.25 -14.18,54.37 4.65,18.13 18.4,32.62 38.67,40.78 19.5,7.82 42.82,8.87 65.79,2.97 22.89,-5.89 42.85,-18.08 56.09,-34.37 13.83,-16.95 18.87,-36.25 14.18,-54.38 -4.69,-18.12 -18.4,-32.61 -38.67,-40.78 -11.17,-4.49 -23.63,-6.76 -36.53,-6.76" /><path
             id="path230"
             style="fill:#fab6a9;fill-opacity:1;fill-rule:nonzero;stroke:none"
             d="m 3961.09,3397.03 c 0,0 1.37,-6.41 -1.4,-57.15 -0.86,-15.93 54.96,-30.82 69.41,-16.4 14.42,14.45 8.63,29.45 12.11,83.75 3.48,54.25 -80.12,-10.2 -80.12,-10.2" /><path
             id="path232"
             style="fill:#eb8b8a;fill-opacity:1;fill-rule:nonzero;stroke:none"
             d="m 4041.21,3407.23 c 0,0 -13.75,-50.35 -81.52,-69.65 l 1.01,45.74 80.51,23.91" /><path
             id="path234"
             style="fill:#fab6a9;fill-opacity:1;fill-rule:nonzero;stroke:none"
             d="m 4084.14,3535.08 c 17.07,-65.9 -22.54,-133.13 -88.44,-150.16 -65.9,-17.03 -133.08,22.54 -150.11,88.48 -17.07,65.86 22.53,133.08 88.43,150.12 65.9,17.03 133.13,-22.58 150.12,-88.44" /><path
             id="path236"
             style="fill:#eb8b8a;fill-opacity:1;fill-rule:nonzero;stroke:none"
             d="m 3993.16,3499.69 c 0,0 -67.85,-29.07 -114.8,-29.38 -46.99,-0.35 -36.64,38.99 -36.64,38.99 l 139.45,20.15 11.99,-29.76" /><path
             id="path238"
             style="fill:#ee1696;fill-opacity:1;fill-rule:nonzero;stroke:none"
             d="m 3864.34,3492.03 c 0,0 59.1,25.12 110.93,14.65 12.19,-2.46 23.52,-8.98 31.33,-18.63 2.58,-3.17 5.82,-6.02 9.49,-6.88 9.18,-2.07 24.26,36.1 42.11,36.95 17.89,0.86 29.81,-11.79 15.16,-35.23 -14.65,-23.48 -9.73,-49.73 -2.97,-53.48 6.76,-3.79 78.24,50.98 15.2,175.94 -63.09,124.96 -223.32,57.66 -248.25,32.35 0,0 -26.25,-22.9 -47.57,-2.54 0,0 -23.95,-179.26 74.57,-143.13" /><path
             id="path240"
             style="fill:#fab6a9;fill-opacity:1;fill-rule:nonzero;stroke:none"
             d="m 4092.34,2975.39 v -93.75 c 0,-10.74 -4.53,-20.98 -12.46,-28.24 l -192.58,-175.55 21.88,-33.47 254.34,184.45 c 11.83,8.59 19.49,21.83 21.01,36.44 l 17.23,163.48 -109.42,-53.36" /><path
             id="path242"
             style="fill:#5f92d3;fill-opacity:1;fill-rule:nonzero;stroke:none"
             d="m 4168.59,3275.7 c 0,0 58.4,-87.85 80.2,-319.14 0,0 -99.81,-32.26 -156.45,-13.94 -56.64,18.32 76.25,333.08 76.25,333.08" /><path
             id="path244"
             style="fill:#4067b1;fill-opacity:1;fill-rule:nonzero;stroke:none"
             d="m 4081.68,3164.61 c 0,0 -22.89,-122.38 -24.18,-179.92 -0.35,-15.82 9.3,-30.08 24.18,-35.47 v 215.39" /><path
             id="path246"
             style="fill:#5f92d3;fill-opacity:1;fill-rule:nonzero;stroke:none"
             d="m 4031.72,2555.94 -42.58,5.62 -274.73,158.64 c -8.82,5.07 -24.21,4.45 -34.37,-1.41 l -194.69,-112.38 -25.74,3.39 v -25.62 h 0.04 c -0.2,-3.36 1.76,-6.6 5.9,-9.02 l 311.36,-179.77 c 8.79,-5.08 24.18,-4.45 34.38,1.45 l 211.99,122.34 c 5.74,3.32 8.6,7.58 8.44,11.56 v 25.2" /><path
             id="path248"
             style="fill:#4067b1;fill-opacity:1;fill-rule:nonzero;stroke:none"
             d="m 3825.27,2656.17 -19.53,11.29 h -214.61 l -105.78,-61.05 -25.74,3.39 v -25.62 h 0.04 c -0.2,-3.36 1.76,-6.6 5.9,-9.02 l 311.36,-179.77 c 4.65,-2.69 11.18,-3.75 17.74,-3.32 l 30.62,264.1" /><path
             id="path250"
             style="fill:#5f92d3;fill-opacity:1;fill-rule:nonzero;stroke:none"
             d="m 3471.05,2608.32 -11.44,1.48 v -25.62 h 0.04 c -0.2,-3.36 1.76,-6.6 5.9,-9.02 l 5.5,-3.17 v 36.33" /><path
             id="path252"
             style="fill:#ffffff;fill-opacity:1;fill-rule:nonzero;stroke:none"
             d="m 3780.08,2393.95 c 8.32,-3.17 20.27,-2.5 29.18,1.79 v 43.6 h -29.18 v -45.39" /><path
             id="path254"
             style="fill:#ffffff;fill-opacity:1;fill-rule:nonzero;stroke:none"
             d="m 3776.91,2421.02 -311.36,179.76 c -8.79,5.08 -7.7,13.95 2.46,19.84 l 212.03,122.35 c 10.16,5.9 25.55,6.52 34.37,1.44 l 311.37,-179.76 c 8.79,-5.12 7.7,-13.99 -2.5,-19.85 l -211.99,-122.38 c -10.2,-5.86 -25.59,-6.48 -34.38,-1.4" /><path
             id="path256"
             style="fill:#d9effb;fill-opacity:1;fill-rule:nonzero;stroke:none"
             d="m 3771.64,2448.24 -258.91,149.49 c -7.3,4.22 -6.36,11.61 2.07,16.49 l 113.64,63.9 c 8.44,4.89 21.25,5.4 28.55,1.18 l 258.91,-149.5 c 7.3,-4.21 6.4,-11.6 -2.07,-16.48 l -113.6,-63.91 c -8.47,-4.88 -21.25,-5.39 -28.59,-1.17" /><path
             id="path258"
             style="fill:#fab6a9;fill-opacity:1;fill-rule:nonzero;stroke:none"
             d="m 3692.07,2748.87 -3.2,-21.49 c -2.78,-18.28 -2.31,-36.91 1.36,-55.08 l 3.87,-18.9 c 2.15,-10.7 10.59,-18.99 21.33,-20.94 8.36,-1.52 16.29,4.38 17.23,12.81 l 5.11,45.94 c 0,0 11.76,-15.39 17.43,-15.39 5.7,0 -6.33,45.98 -19.18,72.03 -12.82,26.02 -43.95,1.02 -43.95,1.02" /><path
             id="path260"
             style="fill:#fab6a9;fill-opacity:1;fill-rule:nonzero;stroke:none"
             d="m 3797.62,3090.31 -33.4,-66.09 c -7.89,-15.67 -12.58,-32.74 -13.67,-50.2 l -14.53,-226.17 -43.95,1.02 -19.92,254.02 c -0.63,7.81 -0.27,15.7 1.09,23.48 l 22.81,128.79 101.57,-64.85" /><path
             id="path262"
             style="fill:#263c7a;fill-opacity:1;fill-rule:nonzero;stroke:none"
             d="m 3766.37,2403.75 -26.1,34.06 -274.57,158.99 c -8.79,5.08 -15.9,18.75 -15.9,30.47 l 0.24,224.76 -15.78,20.63 14.84,8.59 v -0.04 c 2.85,1.84 6.6,1.8 10.74,-0.59 l 311.18,-180.15 c 8.78,-5.12 15.93,-18.75 15.89,-30.51 l -0.27,-244.8 c 0,-6.61 -2.26,-11.18 -5.78,-13.05 l -14.49,-8.36" /><path
             id="path264"
             style="fill:#4067b1;fill-opacity:1;fill-rule:nonzero;stroke:none"
             d="m 3576.48,2532.62 -19.49,11.29 -107.07,186.01 0.12,122.11 -15.78,20.63 14.84,8.59 v -0.04 c 2.85,1.84 6.6,1.8 10.74,-0.59 l 311.18,-180.15 c 4.64,-2.7 8.82,-7.77 11.71,-13.71 l -206.25,-154.14" /><path
             id="path266"
             style="fill:#5f92d3;fill-opacity:1;fill-rule:nonzero;stroke:none"
             d="m 3441.25,2863.52 -6.99,9.14 14.84,8.59 v -0.04 c 2.85,1.84 6.6,1.8 10.74,-0.59 l 5.51,-3.2 -24.1,-13.9" /><path
             id="path268"
             style="fill:#2e4b8d;fill-opacity:1;fill-rule:nonzero;stroke:none"
             d="m 3773.87,2698.48 c 6.87,-5.67 12.22,-16.37 12.97,-26.21 l -30.39,-17.54 -14.57,25.27 31.99,18.48" /><path
             id="path270"
             style="fill:#5f92d3;fill-opacity:1;fill-rule:nonzero;stroke:none"
             d="m 3756.21,2691.88 -311.17,180.15 c -8.79,5.08 -15.94,-0.31 -15.98,-12.03 l -0.23,-244.8 c 0,-11.76 7.11,-25.4 15.9,-30.51 l 311.17,-180.16 c 8.79,-5.08 15.94,0.31 15.94,12.07 l 0.27,244.81 c 0,11.71 -7.11,25.39 -15.9,30.47" /><path
             id="path272"
             style="fill:#fab6a9;fill-opacity:1;fill-rule:nonzero;stroke:none"
             d="m 3909.18,2644.38 -4.96,-10.32 c -5.74,-11.91 -14.81,-21.91 -26.02,-28.83 l -30.9,-19.06 c -9.6,-5.94 -21.79,-6.4 -31.56,-0.74 l -1.05,0.66 c -9.85,6.14 -10.71,20.24 -2.62,28.56 l 32.31,33.2 c 0,0 -18.17,-13.9 -23.25,-8.32 -3.75,4.1 17.58,24.14 33.95,24.81 16.4,0.66 32.22,13.51 32.22,13.51 l 21.88,-33.47" /><path
             id="path274"
             style="fill:#5f92d3;fill-opacity:1;fill-rule:nonzero;stroke:none"
             d="m 3827.3,3393.4 c 0,0 -118.39,-128.87 -166.17,-247.03 0,0 40.47,-72.93 139.57,-101.57 99.1,-28.63 26.6,348.6 26.6,348.6" /><path
             id="path276"
             style="fill:#4067b1;fill-opacity:1;fill-rule:nonzero;stroke:none"
             d="m 3778.44,3052.42 19.18,185.39 -45.24,-173.67 c 8.09,-4.22 16.8,-8.12 26.06,-11.72" /><path
             id="path278"
             style="fill:#ffffff;fill-opacity:1;fill-rule:nonzero;stroke:none"
             d="m 3915.98,3419.38 -31.84,8.74 c 0,0 15.2,-23.9 37.38,-30 22.15,-6.09 25.63,12.7 25.63,12.7 l -31.17,8.56" /><path
             id="path280"
             style="fill:#ffffff;fill-opacity:1;fill-rule:nonzero;stroke:none"
             d="m 4085.9,3470.31 c 0,-9.8 -7.93,-17.73 -17.7,-17.73 -9.8,0 -17.73,7.93 -17.73,17.73 0,9.77 7.93,17.7 17.73,17.7 9.77,0 17.7,-7.93 17.7,-17.7" /><path
             id="path282"
             style="fill:#d1078d;fill-opacity:1;fill-rule:nonzero;stroke:none"
             d="m 5374.88,2182.42 -378.51,218.56 c -7.5,4.29 -14.26,4.45 -19.57,1.56 l 0.04,0.23 -36.72,-21.21 c 0,0 16.25,-5.94 25.78,-9.41 v -275.7 c 0,-22.43 13.63,-48.48 30.47,-58.21 l 361.79,-208.86 v -32.35 l 37.11,21.37 -0.19,0.08 c 6.25,3.79 10.27,12.18 10.27,24.25 v 281.49 c 0,22.42 -13.63,48.48 -30.47,58.2" /><path
             id="path284"
             style="fill:#ee1696;fill-opacity:1;fill-rule:nonzero;stroke:none"
             d="m 5337.5,1798.16 -378.52,218.56 c -16.83,9.69 -30.46,35.74 -30.46,58.2 v 281.45 c 0,22.42 13.63,32.73 30.46,23.04 l 378.52,-218.55 c 16.84,-9.73 30.47,-35.78 30.47,-58.2 v -281.49 c 0,-22.42 -13.63,-32.73 -30.47,-23.01" /><path
             id="path286"
             style="fill:#ffffff;fill-opacity:1;fill-rule:nonzero;stroke:none"
             d="m 5086.29,2113.71 c 0,-16.29 -11.45,-22.89 -25.59,-14.76 -14.1,8.16 -25.5,27.96 -25.5,44.25 0,16.29 11.4,22.89 25.5,14.73 14.14,-8.13 25.59,-27.93 25.59,-44.22" /><path
             id="path288"
             style="fill:#ffffff;fill-opacity:1;fill-rule:nonzero;stroke:none"
             d="m 5163.63,2069.02 c 0,-16.29 -11.4,-22.89 -25.54,-14.72 -14.11,8.12 -25.51,27.93 -25.51,44.22 0,16.28 11.4,22.89 25.51,14.76 14.14,-8.16 25.54,-27.97 25.54,-44.26" /><path
             id="path290"
             style="fill:#ffffff;fill-opacity:1;fill-rule:nonzero;stroke:none"
             d="m 5241.02,2024.38 c 0,-16.29 -11.45,-22.9 -25.55,-14.77 -14.1,8.16 -25.55,27.97 -25.55,44.26 0,16.29 11.45,22.89 25.55,14.72 14.1,-8.12 25.55,-27.93 25.55,-44.21" /><path
             id="path292"
             style="fill:#5f92d3;fill-opacity:1;fill-rule:nonzero;stroke:none"
             d="m 5159.45,2536.33 -378.51,218.55 c -7.5,4.3 -14.26,4.5 -19.57,1.57 l 0.04,0.23 -36.72,-21.21 c 0,0 16.25,-5.94 25.78,-9.42 v -275.7 c 0,-22.42 13.63,-48.47 30.47,-58.16 l 361.79,-208.91 v -32.34 l 37.11,21.36 -0.19,0.08 c 6.25,3.79 10.27,12.19 10.27,24.26 v 281.48 c 0,22.43 -13.63,48.48 -30.47,58.21" /><path
             id="path294"
             style="fill:#d9effb;fill-opacity:1;fill-rule:nonzero;stroke:none"
             d="m 5122.07,2152.07 -378.52,218.55 c -16.83,9.69 -30.46,35.79 -30.46,58.21 v 281.44 c 0,22.43 13.63,32.78 30.46,23.05 l 378.52,-218.55 c 16.84,-9.73 30.47,-35.79 30.47,-58.21 v -281.48 c 0,-22.42 -13.63,-32.74 -30.47,-23.01" /><path
             id="path296"
             style="fill:#ffffff;fill-opacity:1;fill-rule:nonzero;stroke:none"
             d="m 4870.86,2467.62 c 0,-16.29 -11.45,-22.89 -25.55,-14.77 -14.14,8.17 -25.54,27.97 -25.54,44.26 0,16.29 11.4,22.89 25.54,14.77 14.1,-8.17 25.55,-27.97 25.55,-44.26" /><path
             id="path298"
             style="fill:#ffffff;fill-opacity:1;fill-rule:nonzero;stroke:none"
             d="m 4948.2,2422.93 c 0,-16.29 -11.4,-22.89 -25.5,-14.73 -14.15,8.13 -25.55,27.93 -25.55,44.22 0,16.29 11.4,22.89 25.55,14.77 14.1,-8.17 25.5,-27.97 25.5,-44.26" /><path
             id="path300"
             style="fill:#ffffff;fill-opacity:1;fill-rule:nonzero;stroke:none"
             d="m 5025.59,2378.28 c 0,-16.29 -11.45,-22.89 -25.55,-14.76 -14.1,8.16 -25.55,27.96 -25.55,44.25 0,16.29 11.45,22.89 25.55,14.73 14.1,-8.12 25.55,-27.93 25.55,-44.22" /><path
             id="path302"
             style="fill:#d9effb;fill-opacity:1;fill-rule:nonzero;stroke:none"
             d="m 4387.58,480.27 133.24,76.921 133.2,-76.921 -133.2,-76.911 -133.24,76.911" /><path
             id="path304"
             style="fill:#d9effb;fill-opacity:1;fill-rule:nonzero;stroke:none"
             d="m 4670.39,645.738 133.24,76.922 133.25,-76.922 -133.25,-76.906 -133.24,76.906" /><path
             id="path306"
             style="fill:#d9effb;fill-opacity:1;fill-rule:nonzero;stroke:none"
             d="m 4952.34,807.27 133.25,76.91 133.24,-76.91 -133.24,-76.918 -133.25,76.918" /><path
             id="path308"
             style="fill:#c23222;fill-opacity:1;fill-rule:nonzero;stroke:none"
             d="m 4803.63,645.738 v 410.282 l -133.24,76.91 V 722.66 l 133.24,-76.922" /><path
             id="path310"
             style="fill:#d1078d;fill-opacity:1;fill-rule:nonzero;stroke:none"
             d="m 4803.63,1056.02 133.25,76.91 V 722.66 l -133.25,-76.922 v 410.282" /><path
             id="path312"
             style="fill:#d1078d;fill-opacity:1;fill-rule:nonzero;stroke:none"
             d="m 4803.63,645.738 v 410.282 l -133.24,76.91 V 722.66 l 133.24,-76.922" /><path
             id="path314"
             style="fill:#d1078d;fill-opacity:1;fill-rule:nonzero;stroke:none"
             d="m 4520.82,480.27 v 230.781 l -133.24,76.918 V 557.191 l 133.24,-76.921" /><path
             id="path316"
             style="fill:#d1078d;fill-opacity:1;fill-rule:nonzero;stroke:none"
             d="m 4520.82,711.051 133.2,76.918 V 557.191 l -133.2,-76.921 v 230.781" /><path
             id="path318"
             style="fill:#ee1696;fill-opacity:1;fill-rule:nonzero;stroke:none"
             d="m 4387.58,787.969 133.24,76.91 133.2,-76.91 -133.2,-76.918 -133.24,76.918" /><path
             id="path320"
             style="fill:#d1078d;fill-opacity:1;fill-rule:nonzero;stroke:none"
             d="m 5085.59,807.27 v 564.14 l -133.25,76.91 V 884.18 l 133.25,-76.91" /><path
             id="path322"
             style="fill:#d1078d;fill-opacity:1;fill-rule:nonzero;stroke:none"
             d="m 5085.59,1371.41 133.24,76.91 V 884.18 l -133.24,-76.91 v 564.14" /><path
             id="path324"
             style="fill:#ee1696;fill-opacity:1;fill-rule:nonzero;stroke:none"
             d="m 4952.34,1448.32 133.25,76.91 133.24,-76.91 -133.24,-76.91 -133.25,76.91" /><path
             id="path326"
             style="fill:#ee1696;fill-opacity:1;fill-rule:nonzero;stroke:none"
             d="m 4670.39,1132.93 133.24,76.91 133.25,-76.91 -133.25,-76.91 -133.24,76.91" /></g></g></g></g></svg>