<svg xmlns="http://www.w3.org/2000/svg" height="533.333" width="800"><defs><clipPath id="a"><path d="M2260 400h3150v3280H2260z"/></clipPath></defs><g clip-path="url(#a)" transform="matrix(.13333 0 0 -.13333 0 533.333)"><path d="M2965.39 1638.12c-45.08-26.01-118.09-26.01-163.12 0-45.08 25.98-45.08 68.17 0 94.18 45.03 25.98 118.04 25.98 163.12 0 45.04-26.01 45.04-68.2 0-94.18zm95.86 149.54c-98.01 56.56-256.87 56.56-354.88 0-98.01-56.61-98.01-148.32 0-204.93 98.01-56.56 256.87-56.56 354.88 0 98.01 56.61 98.01 148.32 0 204.93" fill="#d9effb"/><path d="M2669.38 1821.17l89.49-1.4c6.64 8.63 16.01 16.71 28.28 23.78 49.22 28.4 126.6 30.59 180.23 6.61l53.21 50.04 81.91-1.29c-4.06 2.65-8.2 5.27-12.62 7.81-113.79 65.7-298.36 65.7-412.15 0-20.93-12.07-38-25.59-51.25-39.88l42.9-45.67" fill="#b41086"/><path d="M3102.5 2028.91v-130l-81.91 1.29v130l81.91-1.29" fill="#d1078d"/><path d="M2967.38 1980.16v-130l53.21 50.04v130l-53.21-50.04m-208.51-30.39v-130l117.73 95.93 90.78-65.54v130l-83.55 40.54s-115.08-35.23-121.06-36.72c-5.97-1.48-3.9-34.21-3.9-34.21" fill="#b41086"/><path d="M2669.38 1951.13v-129.96l89.49-1.4v130l-89.49 1.36" fill="#b41086"/><path d="M2626.48 1996.8v-129.96l42.9-45.67v129.96l-42.9 45.67" fill="#d1078d"/><path d="M2669.38 1951.13l89.49-1.36c6.64 8.63 16.01 16.68 28.28 23.75 49.22 28.43 126.6 30.62 180.23 6.64l53.21 50.04 81.91-1.29c-4.06 2.65-8.2 5.27-12.62 7.81-113.79 65.7-298.36 65.7-412.15 0-20.93-12.11-38-25.59-51.25-39.92l42.9-45.67" fill="#ee1696"/><path d="M2994.38 1964.18v-119.49l77.46 18.55s-4.54 69.92-6.22 71.8c-1.64 1.84-71.24 29.14-71.24 29.14" fill="#5f92d3"/><path d="M2935.7 1844.69v-130l8.4-8.95 54.61 31.53s-8.48 99.21-9.45 101.21c-1.02 1.99-53.56 6.21-53.56 6.21" fill="#263c7a"/><path d="M3041.21 1878.24l-46.83-44.06c39.02-30.86 34.37-74.41-13.87-102.27-13.24-7.61-28.52-13.36-44.81-17.22l48.44-51.6-42.89-40.36c54.45 6.29 106.45 21.65 148.63 46.02 97.85 56.48 111.53 143.13 41.14 208.09l-89.81 1.4" fill="#4067b1"/><path d="M2941.25 1752.73v-130l106.21 41.06 127.77 121.87-.5 138.01-135.16-107.11-98.32-63.83" fill="#4067b1"/><path d="M3041.21 2008.2l-46.83-44.02c39.02-30.9 34.37-74.41-13.87-102.3-13.24-7.62-28.52-13.36-44.81-17.19l48.44-51.6-42.89-40.36c54.45 6.29 106.45 21.61 148.63 45.98 97.85 56.49 111.53 143.17 41.14 208.13l-89.81 1.36" fill="#d9effb"/><path d="M2940.9 1663.79l-42.7 45.47c-39.61-2.42-80.7 5.12-111.05 22.65-31.37 18.13-44.3 42.82-38.79 66.37l-101.64 1.6-39.06 41.6c-34.18-58.63-10.86-126.01 70.07-172.73 59.5-34.34 138.25-50.7 216.18-49.14l46.99 44.18" fill="#4067b1"/><path d="M2893.91 1749.57v-129.96l-301.49 167.03v130.08l44.03-17.81 257.46-149.34" fill="#4067b1"/><path d="M2940.9 1793.79v-130l-46.99-44.18v129.96l46.99 44.22" fill="#263c7a"/><path d="M2940.9 1793.79l-42.7 45.43c-39.61-2.38-80.7 5.16-111.05 22.69-31.37 18.09-44.3 42.82-38.79 66.37l-101.64 1.56-39.06 41.64c-34.18-58.63-10.86-126.01 70.07-172.77 59.5-34.33 138.25-50.66 216.18-49.14l46.99 44.22" fill="#5f92d3"/><path d="M4118.63 789.449L3660.2 1054.18c-28.17 16.21-24.61 44.61 7.85 63.36l442.69 255.58c32.5 18.76 81.64 20.83 109.81 4.58l458.43-264.69c28.17-16.25 24.61-44.65-7.85-63.4l-442.69-255.59c-32.5-18.75-81.64-20.821-109.81-4.571" fill="#d9effb"/><path d="M4831.09 1314.61v198.09l-444.18.23-153.51 88.63c-35.28 20.35-96.8 17.82-137.5-5.66l-143.24-82.74-444.57.28v-203.71c-1.02-13.79 6.68-27.07 23.59-36.88l574.1-331.44c35.27-20.359 96.8-17.781 137.5 5.699l554.34 320.041c23.47 13.55 34.8 31.09 33.47 47.46" fill="#4067b1"/><path d="M4169.61 1615.2c-25.78-.59-52.58-7.11-73.71-19.3l-143.24-82.74-444.57.28v-203.71c-1.02-13.79 6.68-27.07 23.59-36.88l574.1-331.44c16.95-9.769 39.96-14.18 63.83-13.64v687.43" fill="#4067b1"/><path d="M3558.4 1513.4l-50.31.04v-203.71c-1.02-13.79 6.68-27.07 23.59-36.88l26.72-15.39v255.94m556.25-576.33c30.39-13.011 74.33-12.269 109.88 1.289v231.291h-109.88V937.07" fill="#5f92d3"/><path d="M4105.78 1144.41l-574.1 331.45c-35.23 20.35-30.82 55.9 9.88 79.37l554.34 320.04c40.7 23.52 102.22 26.06 137.5 5.71l574.1-331.45c35.23-20.35 30.78-55.9-9.88-79.37l-554.34-320.04c-40.7-23.52-102.23-26.06-137.5-5.71" fill="#d9effb"/><path d="M4116.13 1204.06l-481.09 277.78c-29.53 17.03-25.82 46.79 8.24 66.52l464.57 268.2c34.1 19.65 85.67 21.8 115.2 4.77l481.09-277.78c29.53-17.07 25.82-46.83-8.24-66.52l-464.57-268.2c-34.1-19.69-85.67-21.84-115.2-4.77" fill="#5f92d3"/><path d="M4619.92 1262.3c0-14.76-10.39-32.73-23.16-40.15-12.81-7.38-23.21-1.41-23.21 13.4 0 14.8 10.4 32.77 23.21 40.15 12.77 7.42 23.16 1.41 23.16-13.4m74.61 43.09c0-14.77-10.39-32.77-23.16-40.16-12.82-7.38-23.21-1.4-23.21 13.4 0 14.77 10.39 32.78 23.21 40.16 12.77 7.38 23.16 1.41 23.16-13.4m74.61 43.09c0-14.81-10.39-32.78-23.2-40.16-12.82-7.38-23.17-1.41-23.17 13.4 0 14.76 10.35 32.73 23.17 40.16 12.81 7.38 23.2 1.36 23.2-13.4" fill="#d9effb"/><path d="M4831.09 1631.17v198.09l-444.18.23-153.51 88.63c-35.28 20.36-96.8 17.82-137.5-5.7l-143.24-82.65-444.57.23v-203.71c-1.02-13.79 6.68-27.07 23.59-36.88l574.1-331.44c35.27-20.35 96.8-17.77 137.5 5.7l554.34 320.04c23.47 13.56 34.8 31.09 33.47 47.46" fill="#4067b1"/><path d="M4169.61 1931.8c-25.78-.67-52.58-7.15-73.71-19.38l-143.24-82.65-444.57.23v-203.71c-1.02-13.79 6.68-27.07 23.59-36.88l574.1-331.44c16.95-9.77 39.96-14.22 63.83-13.63v687.46" fill="#4067b1"/><path d="M3558.4 1829.96l-50.31.04v-203.71c-1.02-13.79 6.68-27.07 23.59-36.88l26.72-15.39v255.94m556.25-576.33c30.39-13.01 74.33-12.26 109.88 1.25v231.33h-109.88v-232.58" fill="#5f92d3"/><path d="M4105.78 1460.98l-574.1 331.44c-35.23 20.35-30.82 55.86 9.88 79.38l554.34 320.04c40.7 23.51 102.22 26.05 137.5 5.7l574.1-331.45c35.23-20.35 30.78-55.89-9.88-79.37l-554.34-320.08c-40.7-23.48-102.23-26.02-137.5-5.66" fill="#d9effb"/><path d="M4116.13 1520.62l-481.09 277.78c-29.53 17.03-25.82 46.8 8.24 66.48l464.57 268.24c34.1 19.65 85.67 21.8 115.2 4.77l481.09-277.77c29.53-17.03 25.82-46.84-8.24-66.53l-464.57-268.2c-34.1-19.69-85.67-21.84-115.2-4.77" fill="#5f92d3"/><path d="M4619.92 1578.91c0-14.81-10.39-32.78-23.16-40.2-12.81-7.38-23.21-1.41-23.21 13.4 0 14.77 10.4 32.77 23.21 40.16 12.77 7.42 23.16 1.4 23.16-13.36m74.61 43.04c0-14.76-10.39-32.77-23.16-40.15-12.82-7.39-23.21-1.41-23.21 13.4 0 14.76 10.39 32.77 23.21 40.15 12.77 7.38 23.16 1.41 23.16-13.4m74.61 43.09c0-14.81-10.39-32.77-23.2-40.16-12.82-7.42-23.17-1.4-23.17 13.36 0 14.81 10.35 32.78 23.17 40.2 12.81 7.38 23.2 1.36 23.2-13.4" fill="#d9effb"/><path d="M4831.09 1947.73v198.09l-444.18.23-153.51 88.68c-35.28 20.31-96.8 17.77-137.5-5.71l-143.24-82.73-444.57.27v-203.75c-1.02-13.75 6.68-27.03 23.59-36.79l574.1-331.49c35.27-20.35 96.8-17.77 137.5 5.7l554.34 320.04c23.47 13.56 34.8 31.14 33.47 47.46" fill="#4067b1"/><path d="M4169.61 2248.32c-25.78-.62-52.58-7.11-73.71-19.3l-143.24-82.73-444.57.27v-203.75c-1.02-13.75 6.68-27.03 23.59-36.79l574.1-331.49c16.95-9.76 39.96-14.22 63.83-13.63v687.42" fill="#4067b1"/><path d="M3558.4 2146.52l-50.31.04v-203.75c-1.02-13.75 6.68-27.03 23.59-36.79l26.72-15.43v255.93m556.25-576.32c30.39-13.01 74.33-12.31 109.88 1.25v231.32h-109.88V1570.2" fill="#5f92d3"/><path d="M4105.78 1777.54l-574.1 331.44c-35.23 20.36-30.82 55.86 9.88 79.38l554.34 320.04c40.7 23.51 102.22 26.05 137.5 5.7l574.1-331.44c35.23-20.36 30.78-55.9-9.88-79.38l-554.34-320.08c-40.7-23.47-102.23-26.01-137.5-5.66" fill="#d9effb"/><path d="M4480.43 2001.64l-399.38 246.68-124.29-237.7 34.49-127.96 134.57-87.04 354.61 206.02" fill="#5f92d3"/><path d="M4797.62 2142.27l-554.34-320.04c-40.7-23.52-102.23-26.06-137.5-5.75l-574.1 331.49c-7.85 4.53-13.63 9.84-17.58 15.58-12.11-19.45-6.6-40.58 17.58-54.57l574.1-331.44c35.27-20.35 96.8-17.81 137.5 5.66l554.34 320.08c31.6 18.24 41.21 43.75 27.46 63.75-5.55-8.87-14.73-17.42-27.46-24.76" fill="#fff"/><path d="M4619.92 1895.47c0-14.81-10.39-32.77-23.16-40.2-12.81-7.38-23.21-1.36-23.21 13.4 0 14.81 10.4 32.78 23.21 40.16 12.77 7.38 23.16 1.4 23.16-13.36m74.61 43.05c0-14.77-10.39-32.78-23.16-40.16-12.82-7.38-23.21-1.41-23.21 13.4 0 14.76 10.39 32.77 23.21 40.15 12.77 7.39 23.16 1.41 23.16-13.39m74.61 43.08c0-14.8-10.39-32.77-23.2-40.15-12.82-7.43-23.17-1.41-23.17 13.35 0 14.81 10.35 32.78 23.17 40.2 12.81 7.38 23.2 1.41 23.2-13.4m-680.39-271.17c0-10.31-7.27-14.49-16.21-9.38-8.95 5.2-16.17 17.74-16.17 28.05 0 10.31 7.22 14.49 16.17 9.38 8.94-5.2 16.21-17.74 16.21-28.05" fill="#d9effb"/><path d="M4038.52 1739.22c0-10.31-7.23-14.49-16.18-9.34-8.94 5.16-16.17 17.7-16.17 28.01 0 10.35 7.23 14.53 16.17 9.38 8.95-5.16 16.18-17.74 16.18-28.05" fill="#5f92d3"/><path d="M4088.75 1649.8c0-10.31-7.27-14.49-16.21-9.33-8.95 5.15-16.17 17.73-16.17 28.05 0 10.31 7.22 14.49 16.17 9.33 8.94-5.15 16.21-17.69 16.21-28.05m-50.23 28.83c0-10.35-7.23-14.53-16.18-9.33-8.94 5.15-16.17 17.69-16.17 28 0 10.36 7.23 14.54 16.17 9.34 8.95-5.16 16.18-17.69 16.18-28.01" fill="#d9effb"/><path d="M4088.75 1396.6c0-10.31-7.27-14.49-16.21-9.33-8.95 5.11-16.17 17.69-16.17 28 0 10.32 7.22 14.53 16.17 9.34 8.94-5.16 16.21-17.7 16.21-28.01" fill="#fff"/><path d="M4038.52 1425.39c0-10.31-7.23-14.49-16.18-9.34-8.94 5.16-16.17 17.7-16.17 28.01 0 10.32 7.23 14.53 16.17 9.38 8.95-5.2 16.18-17.74 16.18-28.05" fill="#5f92d3"/><path d="M4088.75 1336.02c0-10.36-7.27-14.54-16.21-9.38-8.95 5.2-16.17 17.74-16.17 28.05 0 10.31 7.22 14.49 16.17 9.33 8.94-5.15 16.21-17.69 16.21-28m-50.23 28.78c0-10.35-7.23-14.53-16.18-9.33-8.94 5.15-16.17 17.69-16.17 28.01 0 10.35 7.23 14.53 16.17 9.33 8.95-5.15 16.18-17.69 16.18-28.01" fill="#d9effb"/><path d="M4088.75 1079.41c0-10.31-7.27-14.49-16.21-9.33-8.95 5.15-16.17 17.69-16.17 28.04 0 10.32 7.22 14.5 16.17 9.34 8.94-5.16 16.21-17.69 16.21-28.05" fill="#fff"/><path d="M4038.52 1108.2c0-10.31-7.23-14.49-16.18-9.33-8.94 5.15-16.17 17.73-16.17 28.04 0 10.32 7.23 14.5 16.17 9.34 8.95-5.16 16.18-17.7 16.18-28.05" fill="#5f92d3"/><path d="M4088.75 1018.83c0-10.31-7.27-14.49-16.21-9.34-8.95 5.16-16.17 17.7-16.17 28.05 0 10.31 7.22 14.49 16.17 9.34 8.94-5.16 16.21-17.74 16.21-28.05" fill="#fff"/><path d="M4038.52 1047.62c0-10.32-7.23-14.5-16.18-9.34-8.94 5.16-16.17 17.74-16.17 28.05 0 10.31 7.23 14.49 16.17 9.33 8.95-5.15 16.18-17.69 16.18-28.04" fill="#d9effb"/><path d="M4466.99 1993.83l-563.01 325.04c-6.56 3.79-5.74 10.39 1.88 14.76 7.54 4.38 19.02 4.85 25.59 1.1l562.96-325.08c6.61-3.79 5.79-10.39-1.79-14.77-7.58-4.37-19.07-4.84-25.63-1.05" fill="#263c7a"/><path d="M2263.98 1217.11l352 204.92c69.72 40.27 135.5 46.64 185.19 18.01 49.69-28.71 77.03-88.87 77.03-169.38v-25.78c-2.5-1.68-5.11-3.32-7.77-4.96v30.74c0 77.62-25.98 135.39-73.13 162.62-47.18 27.23-110.19 20.86-177.46-17.97l-351.99-204.96c-1.83-1.05-4.22-.43-5.27 1.45-1.1 1.83-.47 4.22 1.4 5.31m1097.74 244.14v793.24c0 158.79 111.87 352.58 249.41 431.96 67.35 38.9 130.86 45.07 178.87 17.34 47.97-27.7 74.41-85.78 74.41-163.56v-55.31c-2.57-2.58-5.19-5.15-7.77-7.73v63.04c0 74.89-25.04 130.59-70.55 156.84-45.47 26.25-106.25 20.12-171.09-17.3-135.35-78.17-245.51-268.95-245.51-425.28v-793.24c0-131.6-77.46-287.38-182.46-381.13v10.43c100.86 92.69 174.69 243.2 174.69 370.7" fill="#d9effb"/><path d="M3864.41 2460.66c12.74 12.11 72.15 64.54 158.91 77.78 98.2 15.04 138.83-99.85 138.83-99.85s11.33-59.64 10.94-94.96c-.39-35.31-2.93-163.55-2.93-163.55l-311.37 179.37v.04c-1.25.63-2.15 1.92-2.15 3.4v91.06c2.58 2.57 5.2 4.14 7.77 6.71" fill="#4067b1"/><path d="M4085.12 2533.67L3790 2703.83l1.13-4.26c-45.47 29.38-114.22 32.54-206.17-34.88-182.66-133.95-204.61-320.43-213.91-355.35-9.33-34.96-5.46-256.33-5.46-256.33s-.63-533.95-1.25-596.06c-.59-62.11-18.68-131.75-53.56-206.99-34.88-75.23-124.53-166.52-124.53-166.52V974.77c14.34-117.5 64.26-144.93 138.52-151.61 59.96-5.43 123.82 37.891 174.88 85.039a565.848 565.848 0 0 1-3.13-3.199V796.332c14.34-117.5 64.26-144.883 138.52-151.602 74.3-6.679 154.61 61.321 209.02 118.899 54.46 57.582 100.35 145.551 125.82 224.891 25.51 79.33 17.07 181.83 17.07 181.83s.63 583.67 1.21 698.75c.63 115.04 4.26 94.96 42.04 210.67 37.73 115.66 137.81 196.64 137.81 196.64l240.08 71.48-322.97 185.78" fill="#d9effb"/><path d="M3571.33 654.488c-4.03 5.512-56.64 40.742-70 102.852-7.46 34.57-6.72 87.07-6.72 87.07s.19 29.219.94 55.789l1.75 1.481v10.429l-1.44-1.289c.19 6.02.43 11.641.66 16.41 1.53 27.571-18.86 86.44-18.86 86.44s-28.91 78.87-115.08 81.92c-76.49 2.69-156.99-52.35-174.1-64.73v35.59c-1.18-.79-2.39-1.53-3.56-2.27.12 4.77.2 9.65.31 14.41l1.8 1.53v10.43l-1.44-1.29c.19 6.01.43 11.64.66 16.4 1.52 27.58-18.87 86.45-18.87 86.45s-28.9 78.87-115.08 81.87c-76.48 2.74-156.99-52.3-174.1-64.68v35.58c-2.5-1.68-5.11-3.32-7.77-4.96v-62.3c0-75.55 25.16-132.31 70.86-160.47l.16-.24 1.6-.89 1.29-.82.82-.4 315.89-181.87-.39.429 310.67-178.871" fill="#4067b1"/><path d="M3111.45 1261.56s-2.39 1.21-6.57 2.93c-1.29.63-2.5 1.33-3.79 1.92L2801.17 1440s-55.12 28.98-121.76 4.57c-66.64-24.37-415.89-233.91-415.89-233.91l311.99-179.72.08.04.82-.24 309.37-178.24s175.04 108.441 296.13 178.4l7.78 4.45c49.53 28.48 88.83 49.77 101.17 53.01 74.65 19.76 126.6-4.34 140.12-11.76l-319.53 184.96" fill="#d9effb"/><path d="M3430.98 1076.6l3.63-2.07s-1.33.82-3.63 2.07" fill="#d9effb"/><path d="M4174.69 2282.23c12.73 12.11 72.19 64.53 158.9 77.77 98.21 15.04 138.79-99.84 138.79-99.84s11.37-59.65 10.98-94.96c-.39-35.32-2.93-163.56-2.93-163.56l-311.37 179.38v.03c-1.29.63-2.15 1.92-2.15 3.4v91.06c2.58 2.58 5.2 4.14 7.78 6.72" fill="#4067b1"/><path d="M3631.99 640.352c34.38 0 72.35 11.488 111.68 34.218 136.53 78.789 247.58 271.168 247.58 428.83v793.24c0 156.33 110.16 347.07 245.55 425.24 64.84 37.42 125.58 43.59 171.05 17.34 45.51-26.25 70.55-81.95 70.55-156.84v-177.34c0-2.15 1.76-3.91 3.9-3.91 2.11 0 3.87 1.76 3.87 3.91v177.34c0 77.78-26.4 135.86-74.41 163.56-48.01 27.69-111.53 21.52-178.87-17.35-137.54-79.37-249.37-273.16-249.37-431.95V1103.4c0-155.201-109.34-344.529-243.72-422.15-64.37-37.148-124.68-43.238-169.84-17.191-45.16 26.062-70 81.332-70 155.671v93.079c0 80.511-27.34 140.671-77.03 169.341-49.69 28.67-115.43 22.3-185.2-17.97l-351.99-204.961c-1.83-1.059-2.5-3.438-1.4-5.309 1.05-1.84 3.47-2.461 5.31-1.41l351.99 204.96c67.23 38.83 130.24 45.2 177.38 17.97 47.19-27.27 73.17-85 73.17-162.621V819.73c0-77.191 26.25-134.89 73.9-162.39 19.61-11.32 41.88-16.988 65.9-16.988" fill="#4067b1"/><path d="M3693.98 2458.01l-37.14 21.44c-2.31 1.33-2.35 4.3-.08 6.68l30.51 32.07c2.22 2.39 5.85 3.21 8.16 1.92l37.19-21.49c2.26-1.29 2.3-4.29.08-6.64l-30.51-32.11c-2.27-2.34-5.9-3.2-8.21-1.87" fill="#5f92d3"/><path d="M3773.91 2411.84l-37.15 21.44c-2.31 1.33-2.35 4.3-.08 6.64l30.51 32.11c2.22 2.35 5.9 3.2 8.16 1.88l37.19-21.45c2.26-1.33 2.3-4.3.08-6.68l-30.51-32.07c-2.27-2.38-5.9-3.2-8.2-1.87" fill="#4067b1"/><path d="M3853.87 2365.62l-37.19 21.45c-2.3 1.33-2.3 4.3-.08 6.68l30.51 32.07c2.23 2.38 5.9 3.2 8.16 1.88l37.19-21.45c2.27-1.33 2.31-4.3.08-6.64l-30.51-32.11c-2.23-2.34-5.9-3.2-8.16-1.88" fill="#fff"/><path d="M3933.79 2319.41l-37.19 21.49c-2.26 1.33-2.3 4.3-.08 6.64l30.51 32.11c2.23 2.34 5.9 3.2 8.2 1.87l37.15-21.44c2.31-1.33 2.31-4.3.08-6.68l-30.51-32.07c-2.22-2.38-5.9-3.21-8.16-1.92m-258.71-603.2l-52.03 30.04c-4.85 2.77-8.83 10.31-8.95 16.8-.12 6.48 3.71 9.49 8.56 6.68l52.03-30.04c4.84-2.81 8.83-10.31 8.94-16.8.08-6.48-3.75-9.45-8.55-6.68m123.94-71.56l-76.72 44.3c-4.84 2.77-8.82 10.31-8.94 16.79-.12 6.49 3.75 9.46 8.55 6.68l76.72-44.3c4.85-2.81 8.83-10.31 8.95-16.79.12-6.49-3.71-9.45-8.56-6.68m-149.72-205.94l-52.03 30.04c-4.85 2.77-8.83 10.31-8.95 16.8-.12 6.48 3.71 9.49 8.56 6.68l52.03-30.04c4.84-2.78 8.82-10.31 8.94-16.8.12-6.48-3.75-9.45-8.55-6.68m110.5-63.79l-76.75 44.3c-4.85 2.77-8.83 10.31-8.95 16.8-.08 6.44 3.75 9.45 8.6 6.68l76.71-44.3c4.81-2.78 8.83-10.31 8.95-16.8.08-6.48-3.75-9.45-8.56-6.68m-227.42 374.92l-32.5 18.79c-4.84 2.78-8.83 10.32-8.94 16.76-.08 6.49 3.75 9.49 8.55 6.72l32.5-18.75c4.85-2.81 8.83-10.31 8.95-16.8.11-6.48-3.71-9.49-8.56-6.72m111.02-112.81l-99.34 57.35c-4.8 2.81-8.83 10.31-8.9 16.79-.12 6.49 3.71 9.45 8.51 6.68l99.34-57.34c4.84-2.78 8.83-10.31 8.94-16.8.08-6.44-3.75-9.45-8.55-6.68m-65.24-59.8l-32.5 18.79c-4.8 2.77-8.82 10.27-8.9 16.75-.12 6.49 3.71 9.5 8.51 6.68l32.5-18.75c4.85-2.77 8.83-10.31 8.95-16.75.12-6.53-3.71-9.5-8.56-6.72m220-321.92l-86.83 50.12c-4.85 2.77-8.83 10.31-8.95 16.8-.08 6.48 3.71 9.49 8.56 6.68l86.83-50.12c4.85-2.77 8.83-10.31 8.95-16.8.08-6.48-3.75-9.45-8.56-6.68m-230.04 230.28l-20.85 12.03c-4.85 2.77-8.83 10.31-8.95 16.79-.12 6.49 3.71 9.5 8.56 6.68l20.85-12.03c4.85-2.81 8.83-10.31 8.95-16.79.12-6.49-3.71-9.5-8.56-6.68m6.65-101.29l-25.9 14.96c-4.85 2.77-8.83 10.27-8.95 16.76-.12 6.48 3.71 9.49 8.56 6.68l25.9-14.97c4.84-2.77 8.82-10.27 8.94-16.75.12-6.49-3.71-9.5-8.55-6.68m100.82-58.25l-68.32 39.46c-4.85 2.77-8.83 10.31-8.95 16.79-.12 6.49 3.71 9.5 8.56 6.68l68.32-39.45c4.84-2.77 8.82-10.27 8.94-16.76.08-6.48-3.75-9.49-8.55-6.72m-76.8-4.37l-49.14 28.36c-4.85 2.77-8.83 10.31-8.95 16.8-.08 6.48 3.75 9.49 8.56 6.68l49.14-28.36c4.8-2.78 8.83-10.32 8.9-16.76.12-6.52-3.71-9.49-8.51-6.72m100.31 185.74l-86.83 50.12c-4.85 2.77-8.83 10.31-8.91 16.8-.12 6.48 3.71 9.49 8.52 6.68l86.83-50.12c4.84-2.78 8.83-10.31 8.95-16.8.07-6.48-3.71-9.45-8.56-6.68m-2.93 50.39l-151.29 87.39c-4.84 2.77-8.83 10.31-8.94 16.75-.12 6.53 3.71 9.5 8.55 6.72l151.33-87.38c4.8-2.77 8.83-10.27 8.95-16.8.07-6.44-3.75-9.45-8.6-6.68m-62.89-61.13l-86.8 50.12c-4.84 2.81-8.82 10.31-8.94 16.79-.12 6.49 3.71 9.5 8.55 6.68l86.8-50.11c4.84-2.78 8.87-10.32 8.95-16.8.11-6.48-3.72-9.45-8.56-6.68m131.68-27.3l-31.56 18.24c-4.85 2.77-8.83 10.27-8.95 16.76-.07 6.52 3.75 9.49 8.56 6.71l31.56-18.24c4.81-2.77 8.83-10.27 8.95-16.76.07-6.48-3.75-9.49-8.56-6.71m-112.54-81.22l-104.37 60.28c-4.81 2.77-8.83 10.27-8.91 16.76-.12 6.52 3.71 9.49 8.56 6.71l104.33-60.27c4.85-2.77 8.83-10.31 8.95-16.8.11-6.44-3.71-9.45-8.56-6.68m-76.6 385.36l-76.76 44.29c-4.8 2.81-8.83 10.31-8.9 16.8-.12 6.48 3.71 9.45 8.55 6.68l76.72-44.3c4.8-2.77 8.83-10.31 8.95-16.79.07-6.49-3.76-9.46-8.56-6.68m20.12-498.91l-88.91 51.29c-4.8 2.81-8.83 10.31-8.91 16.8-.11 6.48 3.72 9.49 8.56 6.68l88.87-51.29c4.8-2.82 8.83-10.32 8.9-16.8.12-6.49-3.71-9.45-8.51-6.68m-935.63-49.1l-37.19 21.48c-2.26 1.29-1.99 3.6.63 5.12l35.9 20.74c2.65 1.53 6.64 1.68 8.9.35l37.19-21.44c2.27-1.33 1.99-3.64-.66-5.16l-35.86-20.7c-2.66-1.52-6.64-1.68-8.91-.39" fill="#5f92d3"/><path d="M2740.23 1179.34l-37.18 21.44c-2.27 1.33-2 3.63.62 5.16l35.9 20.7c2.66 1.52 6.64 1.72 8.91.39l37.18-21.44c2.27-1.33 2-3.64-.66-5.16l-35.9-20.7c-2.62-1.57-6.6-1.72-8.87-.39" fill="#4067b1"/><path d="M2820.16 1133.16l-37.19 21.45c-2.27 1.33-1.99 3.63.66 5.16l35.86 20.7c2.66 1.52 6.64 1.68 8.91.39l37.19-21.48c2.26-1.29 1.99-3.64-.67-5.12l-35.86-20.74c-2.65-1.53-6.64-1.68-8.9-.36" fill="#fff"/><path d="M2900.08 1086.95l-37.19 21.49c-2.27 1.33-1.99 3.59.66 5.11l35.86 20.75c2.66 1.52 6.64 1.68 8.91.35l37.19-21.45c2.26-1.32 1.99-3.63-.67-5.15l-35.86-20.71c-2.65-1.52-6.64-1.68-8.9-.39" fill="#5f92d3"/><path d="M3757.81 1892.77s-42.93 21.64-69.26-10.54c-26.36-32.27-64.06-108.32-65.23-159.77-1.17-51.41 40.7-47.93 65.59-35.74 24.88 12.15 97.54 117.58 101.95 138.24 4.37 20.66-5.2 48.59-12.19 54.02-6.99 5.47-20.86 13.79-20.86 13.79" fill="#263c7a"/><path d="M3767.19 1903.12l1.99-44.45c.43-9.45-4.34-18.47-12.58-23.12-7.5-4.26-18.4-7.54-33.08-5.16-32.35 5.2-35.24 14.41-37.54 58.91-2.35 44.41 81.21 13.82 81.21 13.82" fill="#d9effb"/><path d="M3600.7 1978.28s-42.93 21.64-69.29-10.58c-26.33-32.23-64.03-108.32-65.2-159.73-1.17-51.41 40.67-47.93 65.59-35.74 24.84 12.15 97.54 117.57 101.91 138.24 4.41 20.62-5.16 48.55-12.15 54.02-6.99 5.47-20.86 13.79-20.86 13.79" fill="#263c7a"/><path d="M3610.08 1988.63l1.95-44.45c.43-9.45-4.3-18.48-12.54-23.13-7.5-4.25-18.4-7.53-33.12-5.15-32.35 5.19-35.2 14.41-37.5 58.87-2.35 44.49 81.21 13.86 81.21 13.86" fill="#d9effb"/><path d="M3993.09 2805.08c-12.74 206.68-223.87-30.43-223.87-30.43l-144.53-141.64-130.12-142.97c-25.43-27.93-37.27-65.63-32.34-103.05l52.65-400.86c2.58-19.76 19.53-34.37 39.5-34.22 5.66.04 12.1.55 19.53 1.68 46.95 7.35 43.47 52 43.47 52l-9.65 374.92 273.32 164.72s124.73 53.13 112.04 259.85" fill="#263c7a"/><path d="M4150.2 2726.29c-12.74 206.72-223.87-30.39-223.87-30.39l-144.53-141.64-130.12-142.97c-25.43-27.93-37.27-65.63-32.3-103.05l52.61-400.86c2.62-19.8 19.53-34.37 39.49-34.26 5.67.08 12.11.59 19.54 1.72 46.95 7.35 43.47 52 43.47 52l-9.61 374.88 273.28 164.76s124.73 53.13 112.04 259.81" fill="#263c7a"/><path d="M4025.27 3389.8c160.08-66.32 156.88-160.97 156.88-160.97s-31.37-346.92-20.67-578.6c4.5-96.87-514.6-104.25-437.18 154.15 91.29 304.68 57.07 551.32 99.8 588.51 42.74 37.19 159.77 14.1 201.17-3.09" fill="#5f92d3"/><path d="M4076.76 3305.94c-8.36-32.5-50.94-49.65-95.12-38.28-44.14 11.36-73.16 46.95-64.76 79.45 8.35 32.5 50.93 49.65 95.07 38.24 44.18-11.37 73.21-46.91 64.81-79.41" fill="#fab6a9"/><path d="M3984.65 3381.25c-10.98 0-21.45-1.87-30.78-5.66-15.67-6.29-26.17-17.07-29.57-30.39-3.44-13.32.54-27.82 11.21-40.9 11.21-13.75 28.28-24.1 48.04-29.22 19.77-5.08 39.73-4.3 56.22 2.34 15.66 6.29 26.17 17.11 29.61 30.39 3.39 13.32-.59 27.85-11.26 40.9-11.21 13.75-28.28 24.14-48.04 29.26-8.56 2.19-17.15 3.28-25.43 3.28zm24.33-124.77c-9.6 0-19.45 1.25-29.21 3.75-22.93 5.94-42.89 18.13-56.14 34.42-13.83 16.91-18.86 36.25-14.18 54.37 4.65 18.13 18.4 32.62 38.67 40.78 19.5 7.82 42.82 8.87 65.79 2.97 22.89-5.89 42.85-18.08 56.09-34.37 13.83-16.95 18.87-36.25 14.18-54.38-4.69-18.12-18.4-32.61-38.67-40.78-11.17-4.49-23.63-6.76-36.53-6.76" fill="#fff"/><path d="M3961.09 3397.03s1.37-6.41-1.4-57.15c-.86-15.93 54.96-30.82 69.41-16.4 14.42 14.45 8.63 29.45 12.11 83.75 3.48 54.25-80.12-10.2-80.12-10.2" fill="#fab6a9"/><path d="M4041.21 3407.23s-13.75-50.35-81.52-69.65l1.01 45.74 80.51 23.91" fill="#eb8b8a"/><path d="M4084.14 3535.08c17.07-65.9-22.54-133.13-88.44-150.16s-133.08 22.54-150.11 88.48c-17.07 65.86 22.53 133.08 88.43 150.12 65.9 17.03 133.13-22.58 150.12-88.44" fill="#fab6a9"/><path d="M3993.16 3499.69s-67.85-29.07-114.8-29.38c-46.99-.35-36.64 38.99-36.64 38.99l139.45 20.15 11.99-29.76" fill="#eb8b8a"/><path d="M3864.34 3492.03s59.1 25.12 110.93 14.65c12.19-2.46 23.52-8.98 31.33-18.63 2.58-3.17 5.82-6.02 9.49-6.88 9.18-2.07 24.26 36.1 42.11 36.95 17.89.86 29.81-11.79 15.16-35.23-14.65-23.48-9.73-49.73-2.97-53.48 6.76-3.79 78.24 50.98 15.2 175.94-63.09 124.96-223.32 57.66-248.25 32.35 0 0-26.25-22.9-47.57-2.54 0 0-23.95-179.26 74.57-143.13" fill="#ee1696"/><path d="M4092.34 2975.39v-93.75c0-10.74-4.53-20.98-12.46-28.24l-192.58-175.55 21.88-33.47 254.34 184.45a51.638 51.638 0 0 1 21.01 36.44l17.23 163.48-109.42-53.36" fill="#fab6a9"/><path d="M4168.59 3275.7s58.4-87.85 80.2-319.14c0 0-99.81-32.26-156.45-13.94-56.64 18.32 76.25 333.08 76.25 333.08" fill="#5f92d3"/><path d="M4081.68 3164.61s-22.89-122.38-24.18-179.92c-.35-15.82 9.3-30.08 24.18-35.47v215.39" fill="#4067b1"/><path d="M4031.72 2555.94l-42.58 5.62-274.73 158.64c-8.82 5.07-24.21 4.45-34.37-1.41l-194.69-112.38-25.74 3.39v-25.62h.04c-.2-3.36 1.76-6.6 5.9-9.02l311.36-179.77c8.79-5.08 24.18-4.45 34.38 1.45l211.99 122.34c5.74 3.32 8.6 7.58 8.44 11.56v25.2" fill="#5f92d3"/><path d="M3825.27 2656.17l-19.53 11.29h-214.61l-105.78-61.05-25.74 3.39v-25.62h.04c-.2-3.36 1.76-6.6 5.9-9.02l311.36-179.77c4.65-2.69 11.18-3.75 17.74-3.32l30.62 264.1" fill="#4067b1"/><path d="M3471.05 2608.32l-11.44 1.48v-25.62h.04c-.2-3.36 1.76-6.6 5.9-9.02l5.5-3.17v36.33" fill="#5f92d3"/><path d="M3780.08 2393.95c8.32-3.17 20.27-2.5 29.18 1.79v43.6h-29.18v-45.39" fill="#fff"/><path d="M3776.91 2421.02l-311.36 179.76c-8.79 5.08-7.7 13.95 2.46 19.84l212.03 122.35c10.16 5.9 25.55 6.52 34.37 1.44l311.37-179.76c8.79-5.12 7.7-13.99-2.5-19.85l-211.99-122.38c-10.2-5.86-25.59-6.48-34.38-1.4" fill="#fff"/><path d="M3771.64 2448.24l-258.91 149.49c-7.3 4.22-6.36 11.61 2.07 16.49l113.64 63.9c8.44 4.89 21.25 5.4 28.55 1.18l258.91-149.5c7.3-4.21 6.4-11.6-2.07-16.48l-113.6-63.91c-8.47-4.88-21.25-5.39-28.59-1.17" fill="#d9effb"/><path d="M3692.07 2748.87l-3.2-21.49c-2.78-18.28-2.31-36.91 1.36-55.08l3.87-18.9a26.587 26.587 0 0 1 21.33-20.94c8.36-1.52 16.29 4.38 17.23 12.81l5.11 45.94s11.76-15.39 17.43-15.39c5.7 0-6.33 45.98-19.18 72.03-12.82 26.02-43.95 1.02-43.95 1.02" fill="#fab6a9"/><path d="M3797.62 3090.31l-33.4-66.09c-7.89-15.67-12.58-32.74-13.67-50.2l-14.53-226.17-43.95 1.02-19.92 254.02c-.63 7.81-.27 15.7 1.09 23.48l22.81 128.79 101.57-64.85" fill="#fab6a9"/><path d="M3766.37 2403.75l-26.1 34.06-274.57 158.99c-8.79 5.08-15.9 18.75-15.9 30.47l.24 224.76-15.78 20.63 14.84 8.59v-.04c2.85 1.84 6.6 1.8 10.74-.59l311.18-180.15c8.78-5.12 15.93-18.75 15.89-30.51l-.27-244.8c0-6.61-2.26-11.18-5.78-13.05l-14.49-8.36" fill="#263c7a"/><path d="M3576.48 2532.62l-19.49 11.29-107.07 186.01.12 122.11-15.78 20.63 14.84 8.59v-.04c2.85 1.84 6.6 1.8 10.74-.59l311.18-180.15c4.64-2.7 8.82-7.77 11.71-13.71l-206.25-154.14" fill="#4067b1"/><path d="M3441.25 2863.52l-6.99 9.14 14.84 8.59v-.04c2.85 1.84 6.6 1.8 10.74-.59l5.51-3.2-24.1-13.9" fill="#5f92d3"/><path d="M3773.87 2698.48c6.87-5.67 12.22-16.37 12.97-26.21l-30.39-17.54-14.57 25.27 31.99 18.48" fill="#2e4b8d"/><path d="M3756.21 2691.88l-311.17 180.15c-8.79 5.08-15.94-.31-15.98-12.03l-.23-244.8c0-11.76 7.11-25.4 15.9-30.51l311.17-180.16c8.79-5.08 15.94.31 15.94 12.07l.27 244.81c0 11.71-7.11 25.39-15.9 30.47" fill="#5f92d3"/><path d="M3909.18 2644.38l-4.96-10.32c-5.74-11.91-14.81-21.91-26.02-28.83l-30.9-19.06c-9.6-5.94-21.79-6.4-31.56-.74l-1.05.66c-9.85 6.14-10.71 20.24-2.62 28.56l32.31 33.2s-18.17-13.9-23.25-8.32c-3.75 4.1 17.58 24.14 33.95 24.81 16.4.66 32.22 13.51 32.22 13.51l21.88-33.47" fill="#fab6a9"/><path d="M3827.3 3393.4s-118.39-128.87-166.17-247.03c0 0 40.47-72.93 139.57-101.57 99.1-28.63 26.6 348.6 26.6 348.6" fill="#5f92d3"/><path d="M3778.44 3052.42l19.18 185.39-45.24-173.67c8.09-4.22 16.8-8.12 26.06-11.72" fill="#4067b1"/><path d="M3915.98 3419.38l-31.84 8.74s15.2-23.9 37.38-30c22.15-6.09 25.63 12.7 25.63 12.7l-31.17 8.56m169.92 50.93c0-9.8-7.93-17.73-17.7-17.73-9.8 0-17.73 7.93-17.73 17.73 0 9.77 7.93 17.7 17.73 17.7 9.77 0 17.7-7.93 17.7-17.7" fill="#fff"/><path d="M5374.88 2182.42l-378.51 218.56c-7.5 4.29-14.26 4.45-19.57 1.56l.04.23-36.72-21.21s16.25-5.94 25.78-9.41v-275.7c0-22.43 13.63-48.48 30.47-58.21l361.79-208.86v-32.35l37.11 21.37-.19.08c6.25 3.79 10.27 12.18 10.27 24.25v281.49c0 22.42-13.63 48.48-30.47 58.2" fill="#d1078d"/><path d="M5337.5 1798.16l-378.52 218.56c-16.83 9.69-30.46 35.74-30.46 58.2v281.45c0 22.42 13.63 32.73 30.46 23.04l378.52-218.55c16.84-9.73 30.47-35.78 30.47-58.2v-281.49c0-22.42-13.63-32.73-30.47-23.01" fill="#ee1696"/><path d="M5086.29 2113.71c0-16.29-11.45-22.89-25.59-14.76-14.1 8.16-25.5 27.96-25.5 44.25s11.4 22.89 25.5 14.73c14.14-8.13 25.59-27.93 25.59-44.22m77.34-44.69c0-16.29-11.4-22.89-25.54-14.72-14.11 8.12-25.51 27.93-25.51 44.22 0 16.28 11.4 22.89 25.51 14.76 14.14-8.16 25.54-27.97 25.54-44.26m77.39-44.64c0-16.29-11.45-22.9-25.55-14.77-14.1 8.16-25.55 27.97-25.55 44.26s11.45 22.89 25.55 14.72c14.1-8.12 25.55-27.93 25.55-44.21" fill="#fff"/><path d="M5159.45 2536.33l-378.51 218.55c-7.5 4.3-14.26 4.5-19.57 1.57l.04.23-36.72-21.21s16.25-5.94 25.78-9.42v-275.7c0-22.42 13.63-48.47 30.47-58.16l361.79-208.91v-32.34l37.11 21.36-.19.08c6.25 3.79 10.27 12.19 10.27 24.26v281.48c0 22.43-13.63 48.48-30.47 58.21" fill="#5f92d3"/><path d="M5122.07 2152.07l-378.52 218.55c-16.83 9.69-30.46 35.79-30.46 58.21v281.44c0 22.43 13.63 32.78 30.46 23.05l378.52-218.55c16.84-9.73 30.47-35.79 30.47-58.21v-281.48c0-22.42-13.63-32.74-30.47-23.01" fill="#d9effb"/><path d="M4870.86 2467.62c0-16.29-11.45-22.89-25.55-14.77-14.14 8.17-25.54 27.97-25.54 44.26s11.4 22.89 25.54 14.77c14.1-8.17 25.55-27.97 25.55-44.26m77.34-44.69c0-16.29-11.4-22.89-25.5-14.73-14.15 8.13-25.55 27.93-25.55 44.22s11.4 22.89 25.55 14.77c14.1-8.17 25.5-27.97 25.5-44.26m77.39-44.65c0-16.29-11.45-22.89-25.55-14.76-14.1 8.16-25.55 27.96-25.55 44.25s11.45 22.89 25.55 14.73c14.1-8.12 25.55-27.93 25.55-44.22" fill="#fff"/><path d="M4387.58 480.27l133.24 76.921 133.2-76.921-133.2-76.911-133.24 76.911m282.81 165.468l133.24 76.922 133.25-76.922-133.25-76.906-133.24 76.906m281.95 161.532l133.25 76.91 133.24-76.91-133.24-76.918-133.25 76.918" fill="#d9effb"/><path d="M4803.63 645.738v410.282l-133.24 76.91V722.66l133.24-76.922" fill="#c23222"/><path d="M4803.63 1056.02l133.25 76.91V722.66l-133.25-76.922v410.282m0-410.282v410.282l-133.24 76.91V722.66l133.24-76.922M4520.82 480.27v230.781l-133.24 76.918V557.191l133.24-76.921m0 230.781l133.2 76.918V557.191l-133.2-76.921v230.781" fill="#d1078d"/><path d="M4387.58 787.969l133.24 76.91 133.2-76.91-133.2-76.918-133.24 76.918" fill="#ee1696"/><path d="M5085.59 807.27v564.14l-133.25 76.91V884.18l133.25-76.91m0 564.14l133.24 76.91V884.18l-133.24-76.91v564.14" fill="#d1078d"/><path d="M4952.34 1448.32l133.25 76.91 133.24-76.91-133.24-76.91-133.25 76.91m-281.95-315.39l133.24 76.91 133.25-76.91-133.25-76.91-133.24 76.91" fill="#ee1696"/></g></svg>